<?xml version="1.0" encoding="UTF-8" standalone="no"?>
<!DOCTYPE svg PUBLIC "-//W3C//DTD SVG 1.1//EN" "http://www.w3.org/Graphics/SVG/1.1/DTD/svg11.dtd">
<svg width="100%" height="100%" viewBox="0 0 391 391" version="1.1" xmlns="http://www.w3.org/2000/svg" xmlns:xlink="http://www.w3.org/1999/xlink" xml:space="preserve" xmlns:serif="http://www.serif.com/" style="fill-rule:evenodd;clip-rule:evenodd;stroke-linejoin:round;stroke-miterlimit:2;">
    <g>
        <g transform="matrix(10.3317,0,0,17.0449,-1625.45,-16054.4)">
            <path d="M162.359,951.338L190.101,951.338L190.101,956.184L162.359,956.184L162.359,951.338ZM158.566,963.568L158.566,943.131L161.121,943.131L161.121,963.568L158.566,963.568ZM191.339,963.568L191.339,948.354L193.895,948.354L193.895,963.568L191.339,963.568ZM194.514,947.115L190.72,947.115C190.378,947.115 190.101,947.393 190.101,947.734L190.101,950.1L162.359,950.1L162.359,942.512C162.359,942.17 162.082,941.893 161.74,941.893L157.946,941.893C157.604,941.893 157.327,942.17 157.327,942.512L157.327,964.188C157.327,964.531 157.604,964.809 157.946,964.809L161.74,964.809C162.082,964.809 162.359,964.531 162.359,964.188L162.359,957.424L190.101,957.424L190.101,964.188C190.101,964.531 190.378,964.809 190.72,964.809L194.514,964.809C194.855,964.809 195.133,964.531 195.133,964.188L195.133,956.803L195.133,950.719L195.133,947.734C195.133,947.393 194.855,947.115 194.514,947.115Z" style="fill:rgb(34,31,31);fill-rule:nonzero;"/>
        </g>
        <g transform="matrix(10.3317,0,0,17.0449,-1625.45,-16054.4)">
            <path d="M170.023,947.621C170.023,947.963 169.746,948.24 169.404,948.24L164.836,948.24C164.495,948.24 164.217,947.963 164.217,947.621L164.217,946.779C164.217,946.438 164.495,946.16 164.836,946.16L169.404,946.16C169.746,946.16 170.023,946.438 170.023,946.779L170.023,947.621ZM164.836,944.922C163.813,944.922 162.979,945.754 162.979,946.779L162.979,947.621C162.979,948.645 163.813,949.479 164.836,949.479L169.404,949.479C170.429,949.479 171.262,948.645 171.262,947.621L171.262,946.779C171.262,945.754 170.429,944.922 169.404,944.922L164.836,944.922Z" style="fill:rgb(34,31,31);fill-rule:nonzero;"/>
        </g>
    </g>
</svg>
