<?xml version="1.0" encoding="UTF-8" standalone="no"?>
<!DOCTYPE svg PUBLIC "-//W3C//DTD SVG 1.1//EN" "http://www.w3.org/Graphics/SVG/1.1/DTD/svg11.dtd">
<svg width="100%" height="100%" viewBox="0 0 391 391" version="1.1" xmlns="http://www.w3.org/2000/svg" xmlns:xlink="http://www.w3.org/1999/xlink" xml:space="preserve" xmlns:serif="http://www.serif.com/" style="fill-rule:evenodd;clip-rule:evenodd;stroke-linejoin:round;stroke-miterlimit:2;">
    <g>
        <g transform="matrix(18.4987,0,0,11.1178,-17291.6,-8902.54)">
            <path d="M937.667,817.211C937.255,816.342 936.902,815.063 936.647,813.51C936.644,813.488 936.64,813.467 936.635,813.445C936.462,812.746 936.375,812.025 936.375,811.307C936.375,806.385 940.379,802.381 945.302,802.381C950.224,802.381 954.229,806.385 954.229,811.307C954.229,812.025 954.142,812.746 953.969,813.445C953.964,813.467 953.959,813.488 953.956,813.51C953.702,815.063 953.349,816.342 952.936,817.211C951.888,819.41 947.109,827.262 945.302,830.211C943.495,827.262 938.715,819.41 937.667,817.211ZM949.334,833.17C949.225,833.479 947.861,834.252 945.302,834.252C942.712,834.252 941.347,833.459 941.266,833.18C941.339,832.91 942.452,832.244 944.555,832.111C944.579,832.15 944.598,832.182 944.608,832.197C944.756,832.438 945.019,832.584 945.302,832.584C945.584,832.584 945.847,832.438 945.996,832.197C946.005,832.182 946.024,832.15 946.048,832.111C948.125,832.242 949.236,832.893 949.334,833.17ZM955.56,813.805C955.758,812.986 955.859,812.146 955.859,811.307C955.859,805.486 951.123,800.75 945.302,800.75C939.48,800.75 934.744,805.486 934.744,811.307C934.744,812.146 934.845,812.986 935.043,813.805C935.326,815.516 935.713,816.898 936.196,817.91C937.233,820.09 941.599,827.283 943.604,830.561C940.894,830.906 939.636,832.07 939.636,833.17C939.636,834.477 941.409,835.883 945.302,835.883C949.195,835.883 950.967,834.477 950.967,833.17C950.967,832.07 949.709,830.906 947,830.561C949.004,827.283 953.37,820.09 954.408,817.91C954.89,816.898 955.278,815.516 955.56,813.805Z" style="fill:rgb(34,31,31);fill-rule:nonzero;"/>
        </g>
        <g transform="matrix(18.4987,0,0,11.1178,-17291.6,-8902.54)">
            <path d="M941.267,811.004C941.267,808.779 943.077,806.969 945.302,806.969C947.527,806.969 949.337,808.779 949.337,811.004C949.337,813.229 947.527,815.039 945.302,815.039C943.077,815.039 941.267,813.229 941.267,811.004ZM945.302,805.338C942.178,805.338 939.636,807.879 939.636,811.004C939.636,814.127 942.178,816.67 945.302,816.67C948.426,816.67 950.967,814.127 950.967,811.004C950.967,807.879 948.426,805.338 945.302,805.338Z" style="fill:rgb(34,31,31);fill-rule:nonzero;"/>
        </g>
    </g>
</svg>
