<?xml version="1.0" encoding="UTF-8" standalone="no"?>
<!DOCTYPE svg PUBLIC "-//W3C//DTD SVG 1.1//EN" "http://www.w3.org/Graphics/SVG/1.1/DTD/svg11.dtd">
<svg width="100%" height="100%" viewBox="0 0 391 391" version="1.1" xmlns="http://www.w3.org/2000/svg" xmlns:xlink="http://www.w3.org/1999/xlink" xml:space="preserve" xmlns:serif="http://www.serif.com/" style="fill-rule:evenodd;clip-rule:evenodd;stroke-linejoin:round;stroke-miterlimit:2;">
    <g>
        <g transform="matrix(12.0114,0,0,11.9038,-10389.3,-5683.89)">
            <path d="M868.814,483.57C869.527,482.783 870.547,482.331 871.612,482.331C872.547,482.331 873.444,482.677 874.139,483.305L875.762,484.772C876.509,485.448 876.948,486.374 876.998,487.379C877.048,488.385 876.705,489.351 876.029,490.097L875.067,491.16C874.605,491.67 874.016,492.044 873.361,492.241L873.069,492.329C872.885,492.384 872.735,492.518 872.658,492.694C872.582,492.87 872.587,493.071 872.673,493.244L872.809,493.518C874.938,497.794 878.557,501.115 882.999,502.869L883.251,502.968C883.418,503.034 883.604,503.027 883.766,502.952C883.928,502.877 884.052,502.738 884.108,502.568L884.194,502.313C884.36,501.819 884.622,501.373 884.972,500.986L885.933,499.923C886.647,499.134 887.667,498.682 888.73,498.682C889.665,498.682 890.563,499.028 891.258,499.656L892.881,501.125C894.422,502.519 894.542,504.907 893.148,506.449L892.186,507.513C891.923,507.804 891.613,508.054 891.249,508.265C890.326,508.832 889.119,509.081 887.846,508.965C877.218,508.012 868.391,500.028 866.379,489.548C865.954,487.351 866.753,485.737 867.395,485.189C867.416,485.171 867.436,485.151 867.454,485.131L867.499,485.082C867.518,485.061 867.536,485.039 867.552,485.015C867.644,484.882 867.745,484.754 867.853,484.634L868.814,483.57ZM866.885,483.76C866.751,483.909 866.624,484.067 866.508,484.231C865.445,485.172 864.604,487.243 865.098,489.795C867.219,500.842 876.525,509.259 887.729,510.264C887.971,510.286 888.21,510.297 888.448,510.297C889.735,510.296 890.95,509.979 891.917,509.385C892.384,509.115 892.8,508.779 893.153,508.387L894.116,507.324C895.992,505.249 895.83,502.034 893.756,500.157L892.132,498.689C891.197,497.843 889.989,497.377 888.73,497.377C887.299,497.377 885.927,497.986 884.966,499.048L884.004,500.111C883.628,500.527 883.328,500.994 883.108,501.505C879.272,499.892 876.126,497.012 874.181,493.334C874.885,493.048 875.52,492.604 876.035,492.035L876.996,490.972C877.906,489.967 878.369,488.667 878.301,487.314C878.233,485.96 877.643,484.714 876.637,483.804L875.014,482.337C874.079,481.492 872.871,481.026 871.612,481.026C870.179,481.026 868.807,481.635 867.847,482.695L866.885,483.76Z" style="fill:rgb(34,31,31);fill-rule:nonzero;"/>
        </g>
        <g transform="matrix(12.0114,0,0,11.9038,-10389.3,-5683.89)">
            <path d="M896.116,493.68C895.727,493.68 895.411,493.364 895.411,492.976C895.411,485.57 889.386,479.546 881.981,479.546C881.592,479.546 881.276,479.23 881.276,478.842C881.276,478.453 881.592,478.136 881.981,478.136C890.163,478.136 896.82,484.793 896.82,492.976C896.82,493.364 896.504,493.68 896.116,493.68ZM897.472,492.976C897.472,484.434 890.522,477.484 881.981,477.484C881.233,477.484 880.624,478.093 880.624,478.842C880.624,479.59 881.233,480.198 881.981,480.198C889.026,480.198 894.759,485.93 894.759,492.976C894.759,493.724 895.367,494.333 896.116,494.333C896.863,494.333 897.472,493.724 897.472,492.976Z" style="fill:rgb(34,31,31);fill-rule:nonzero;"/>
        </g>
        <g transform="matrix(12.0114,0,0,11.9038,-10389.3,-5683.89)">
            <path d="M891.071,493.847C890.683,493.847 890.366,493.531 890.366,493.142C890.366,488.427 886.53,484.59 881.814,484.59C881.426,484.59 881.11,484.274 881.11,483.885C881.11,483.497 881.426,483.181 881.814,483.181C887.307,483.181 891.776,487.65 891.776,493.142C891.776,493.531 891.46,493.847 891.071,493.847ZM881.814,482.529C881.066,482.529 880.458,483.137 880.458,483.885C880.458,484.633 881.066,485.242 881.814,485.242C886.17,485.242 889.714,488.786 889.714,493.142C889.714,493.89 890.323,494.499 891.071,494.499C891.819,494.499 892.428,493.89 892.428,493.142C892.428,487.29 887.667,482.529 881.814,482.529Z" style="fill:rgb(34,31,31);fill-rule:nonzero;"/>
        </g>
    </g>
</svg>
