<?xml version="1.0" encoding="UTF-8" standalone="no"?>
<!DOCTYPE svg PUBLIC "-//W3C//DTD SVG 1.1//EN" "http://www.w3.org/Graphics/SVG/1.1/DTD/svg11.dtd">
<svg width="100%" height="100%" viewBox="0 0 391 391" version="1.1" xmlns="http://www.w3.org/2000/svg" xmlns:xlink="http://www.w3.org/1999/xlink" xml:space="preserve" xmlns:serif="http://www.serif.com/" style="fill-rule:evenodd;clip-rule:evenodd;stroke-linejoin:round;stroke-miterlimit:2;">
    <g>
        <g transform="matrix(10.9347,0,0,10.0336,-1030.93,-854.032)">
            <path d="M104.308,107.197C104.905,107.162 105.335,107.113 105.617,107.05C106.215,106.918 106.711,106.646 107.092,106.243C107.359,105.961 107.562,105.587 107.695,105.129C107.713,105.065 107.729,105.006 107.743,104.95L108.9,104.95L108.9,116.92L107.462,116.92L107.462,108.479C107.462,108.225 107.255,108.018 107,108.018L104.308,108.018L104.308,107.197ZM103.846,108.942L106.537,108.942L106.537,117.383C106.537,117.638 106.744,117.845 107,117.845L109.362,117.845C109.618,117.845 109.825,117.638 109.825,117.383L109.825,104.488C109.825,104.232 109.618,104.026 109.362,104.026L107.349,104.026C107.094,104.026 106.887,104.232 106.887,104.488C106.887,104.513 106.881,104.615 106.808,104.873C106.716,105.186 106.586,105.433 106.42,105.608C106.165,105.878 105.837,106.055 105.417,106.148C105.126,106.212 104.591,106.263 103.825,106.297C103.578,106.308 103.384,106.511 103.384,106.759L103.384,108.479C103.384,108.735 103.591,108.942 103.846,108.942Z" style="fill:rgb(34,31,31);fill-rule:nonzero;"/>
        </g>
        <g transform="matrix(10.9347,0,0,10.0336,-1030.93,-854.032)">
            <path d="M113.699,114.177C113.83,114.64 114.033,115.018 114.306,115.305C114.68,115.699 115.209,115.898 115.88,115.898C116.656,115.898 117.262,115.613 117.681,115.05C118.067,114.53 118.263,113.877 118.263,113.111C118.263,112.364 118.082,111.717 117.723,111.188C117.326,110.604 116.715,110.308 115.907,110.308C115.552,110.308 115.234,110.354 114.954,110.45C114.542,110.598 114.21,110.85 113.965,111.201L112.187,111.126L112.609,104.926L118.622,104.926L118.622,106.147L114.448,106.147C114.208,106.147 114.007,106.332 113.987,106.572L113.757,109.384C113.742,109.56 113.83,109.729 113.981,109.819C114.133,109.91 114.323,109.905 114.471,109.809C114.915,109.518 115.163,109.397 115.291,109.349C115.602,109.233 115.999,109.175 116.467,109.175C117.421,109.175 118.229,109.486 118.938,110.128C119.634,110.758 119.973,111.667 119.973,112.907C119.973,113.995 119.633,114.941 118.935,115.799C118.257,116.628 117.255,117.031 115.872,117.031C114.75,117.031 113.862,116.744 113.155,116.154C112.573,115.667 112.215,115.017 112.068,114.177L113.699,114.177ZM112.563,116.863C113.43,117.588 114.543,117.956 115.872,117.956C117.527,117.956 118.799,117.427 119.651,116.384C120.478,115.368 120.897,114.198 120.897,112.907C120.897,111.412 120.447,110.246 119.558,109.443C118.684,108.651 117.644,108.25 116.467,108.25C115.88,108.25 115.39,108.326 114.966,108.484C114.899,108.509 114.827,108.54 114.75,108.577L114.874,107.072L119.084,107.072C119.339,107.072 119.546,106.865 119.546,106.609L119.546,104.464C119.546,104.209 119.339,104.002 119.084,104.002L112.177,104.002C111.935,104.002 111.733,104.19 111.716,104.433L111.231,111.537C111.223,111.661 111.266,111.784 111.349,111.876C111.432,111.97 111.549,112.025 111.674,112.03L114.198,112.136C114.376,112.147 114.545,112.046 114.627,111.887C114.772,111.608 114.982,111.422 115.259,111.323C115.436,111.262 115.654,111.232 115.907,111.232C116.404,111.232 116.738,111.383 116.958,111.708C117.21,112.08 117.338,112.552 117.338,113.111C117.338,113.675 117.204,114.142 116.939,114.499C116.698,114.823 116.361,114.974 115.88,114.974C115.467,114.974 115.171,114.874 114.976,114.668C114.758,114.439 114.605,114.09 114.521,113.631C114.481,113.412 114.29,113.252 114.067,113.252L111.547,113.252C111.419,113.252 111.296,113.306 111.209,113.4C111.122,113.494 111.077,113.62 111.086,113.749C111.184,115.077 111.68,116.125 112.563,116.863Z" style="fill:rgb(34,31,31);fill-rule:nonzero;"/>
        </g>
        <g transform="matrix(10.9347,0,0,10.0336,-1030.93,-854.032)">
            <path d="M128.614,120.114C128.614,121.518 127.472,122.659 126.068,122.659L98.212,122.659C96.808,122.659 95.667,121.518 95.667,120.114L95.667,95.065C95.667,93.662 96.808,92.519 98.212,92.519L98.653,92.519L98.653,93.878C98.653,95.629 100.078,97.054 101.83,97.054C103.581,97.054 105.006,95.629 105.006,93.878L105.006,92.519L119.274,92.519L119.274,93.878C119.274,95.629 120.699,97.054 122.451,97.054C124.203,97.054 125.628,95.629 125.628,93.878L125.628,92.519L126.068,92.519C127.472,92.519 128.614,93.662 128.614,95.065L128.614,120.114ZM100.855,87.398C100.855,86.845 101.306,86.395 101.859,86.395C102.412,86.395 102.863,86.845 102.863,87.398L102.863,94.266C102.863,94.819 102.412,95.27 101.859,95.27C101.306,95.27 100.855,94.819 100.855,94.266L100.855,87.398ZM121.373,87.398C121.373,86.845 121.823,86.395 122.376,86.395C122.93,86.395 123.379,86.845 123.379,87.398L123.379,94.266C123.379,94.819 122.93,95.27 122.376,95.27C121.823,95.27 121.373,94.819 121.373,94.266L121.373,87.398ZM126.068,91.133L124.935,91.133C124.836,91.133 124.743,91.154 124.658,91.191L124.658,87.398C124.658,86.14 123.634,85.117 122.376,85.117C121.118,85.117 120.095,86.14 120.095,87.398L120.095,91.146C120.054,91.138 120.011,91.133 119.968,91.133L104.313,91.133C104.253,91.133 104.196,91.143 104.141,91.157L104.141,87.398C104.141,86.14 103.117,85.117 101.859,85.117C100.601,85.117 99.577,86.14 99.577,87.398L99.577,91.175C99.504,91.149 99.427,91.133 99.346,91.133L98.212,91.133C96.043,91.133 94.28,92.897 94.28,95.065L94.28,120.114C94.28,122.282 96.043,124.046 98.212,124.046L126.068,124.046C128.235,124.046 130.001,122.282 130.001,120.114L130.001,95.065C130.001,92.897 128.235,91.133 126.068,91.133Z" style="fill:rgb(34,31,31);fill-rule:nonzero;"/>
        </g>
        <g transform="matrix(10.9347,0,0,10.0336,-1030.93,-854.032)">
            <path d="M125.903,118.827C125.903,119.378 125.456,119.826 124.905,119.826L99.494,119.826C98.943,119.826 98.495,119.378 98.495,118.827L98.495,102.503L125.903,102.503L125.903,118.827ZM126.597,101.117L97.802,101.117C97.419,101.117 97.108,101.427 97.108,101.81L97.108,118.827C97.108,120.143 98.179,121.212 99.494,121.212L124.905,121.212C126.22,121.212 127.29,120.143 127.29,118.827L127.29,101.81C127.29,101.427 126.98,101.117 126.597,101.117Z" style="fill:rgb(34,31,31);fill-rule:nonzero;"/>
        </g>
    </g>
</svg>
