<?xml version="1.0" encoding="UTF-8" standalone="no"?>
<!DOCTYPE svg PUBLIC "-//W3C//DTD SVG 1.1//EN" "http://www.w3.org/Graphics/SVG/1.1/DTD/svg11.dtd">
<svg width="100%" height="100%" viewBox="0 0 491 491" version="1.1" xmlns="http://www.w3.org/2000/svg" xmlns:xlink="http://www.w3.org/1999/xlink" xml:space="preserve" xmlns:serif="http://www.serif.com/" style="fill-rule:evenodd;clip-rule:evenodd;stroke-linejoin:round;stroke-miterlimit:2;">
    <g transform="matrix(7.70209,0,0,11.3638,-2214.54,-11169.2)">
        <path d="M317.309,1024.34L317.309,1014.98L320.893,1014.98L320.893,1024.34L317.309,1024.34ZM328.362,1001.46L328.362,1023.91L322.183,1023.91L322.183,1014.33C322.183,1013.98 321.894,1013.69 321.538,1013.69L316.664,1013.69C316.308,1013.69 316.019,1013.98 316.019,1014.33L316.019,1023.91L310.396,1023.91L310.396,992.162L310.396,985.03L328.375,985.03L328.375,1001.33C328.369,1001.37 328.362,1001.41 328.362,1001.46ZM297.615,1014.98L301.198,1014.98L301.198,1024.34L297.615,1024.34L297.615,1014.98ZM290.567,993.236L308.247,993.236L308.247,1023.91L302.488,1023.91L302.488,1014.33C302.488,1013.98 302.2,1013.69 301.843,1013.69L296.97,1013.69C296.614,1013.69 296.325,1013.98 296.325,1014.33L296.325,1023.91L290.567,1023.91L290.567,993.236ZM348.191,1023.91L342.433,1023.91L342.433,1014.33C342.433,1013.98 342.145,1013.69 341.788,1013.69L336.915,1013.69C336.559,1013.69 336.27,1013.98 336.27,1014.33L336.27,1023.91L330.512,1023.91L330.512,1002.53L348.191,1002.53L348.191,1023.91ZM337.56,1014.98L341.143,1014.98L341.143,1024.34L337.56,1024.34L337.56,1014.98ZM349.266,1000.38L330.525,1000.38L330.525,983.955C330.525,983.361 330.043,982.88 329.45,982.88L309.321,982.88C308.728,982.88 308.247,983.361 308.247,983.955L308.247,991.087L289.492,991.087C288.898,991.087 288.417,991.568 288.417,992.162L288.417,1024.98C288.417,1025.57 288.898,1026.06 289.492,1026.06L349.266,1026.06C349.86,1026.06 350.341,1025.57 350.341,1024.98L350.341,1001.46C350.341,1000.86 349.86,1000.38 349.266,1000.38Z" style="fill:rgb(30,24,25);fill-rule:nonzero;"/>
    </g>
    <g transform="matrix(7.70209,0,0,11.3638,-2214.54,-11169.2)">
        <path d="M317.567,993.924L314.042,993.924L314.042,990.399L317.567,990.399L317.567,993.924ZM318.212,989.109L313.397,989.109C313.041,989.109 312.752,989.398 312.752,989.754L312.752,994.569C312.752,994.926 313.041,995.214 313.397,995.214L318.212,995.214C318.568,995.214 318.857,994.926 318.857,994.569L318.857,989.754C318.857,989.398 318.568,989.109 318.212,989.109Z" style="fill:rgb(30,24,25);fill-rule:nonzero;"/>
    </g>
    <g transform="matrix(7.70209,0,0,11.3638,-2214.54,-11169.2)">
        <path d="M324.877,993.924L321.353,993.924L321.353,990.399L324.877,990.399L324.877,993.924ZM325.522,989.109L320.708,989.109C320.351,989.109 320.063,989.398 320.063,989.754L320.063,994.569C320.063,994.926 320.351,995.214 320.708,995.214L325.522,995.214C325.878,995.214 326.167,994.926 326.167,994.569L326.167,989.754C326.167,989.398 325.878,989.109 325.522,989.109Z" style="fill:rgb(30,24,25);fill-rule:nonzero;"/>
    </g>
    <g transform="matrix(7.70209,0,0,11.3638,-2214.54,-11169.2)">
        <path d="M317.567,1001.81L314.042,1001.81L314.042,998.283L317.567,998.283L317.567,1001.81ZM318.212,996.993L313.397,996.993C313.041,996.993 312.752,997.282 312.752,997.639L312.752,1002.45C312.752,1002.81 313.041,1003.1 313.397,1003.1L318.212,1003.1C318.568,1003.1 318.857,1002.81 318.857,1002.45L318.857,997.639C318.857,997.282 318.568,996.993 318.212,996.993Z" style="fill:rgb(30,24,25);fill-rule:nonzero;"/>
    </g>
    <g transform="matrix(7.70209,0,0,11.3638,-2214.54,-11169.2)">
        <path d="M324.877,1001.81L321.353,1001.81L321.353,998.283L324.877,998.283L324.877,1001.81ZM325.522,996.993L320.708,996.993C320.351,996.993 320.063,997.282 320.063,997.639L320.063,1002.45C320.063,1002.81 320.351,1003.1 320.708,1003.1L325.522,1003.1C325.878,1003.1 326.167,1002.81 326.167,1002.45L326.167,997.639C326.167,997.282 325.878,996.993 325.522,996.993Z" style="fill:rgb(30,24,25);fill-rule:nonzero;"/>
    </g>
    <g transform="matrix(7.70209,0,0,11.3638,-2214.54,-11169.2)">
        <path d="M317.567,1009.69L314.042,1009.69L314.042,1006.17L317.567,1006.17L317.567,1009.69ZM318.212,1004.88L313.397,1004.88C313.041,1004.88 312.752,1005.17 312.752,1005.52L312.752,1010.34C312.752,1010.69 313.041,1010.98 313.397,1010.98L318.212,1010.98C318.568,1010.98 318.857,1010.69 318.857,1010.34L318.857,1005.52C318.857,1005.17 318.568,1004.88 318.212,1004.88Z" style="fill:rgb(30,24,25);fill-rule:nonzero;"/>
    </g>
    <g transform="matrix(7.70209,0,0,11.3638,-2214.54,-11169.2)">
        <path d="M324.877,1009.69L321.353,1009.69L321.353,1006.17L324.877,1006.17L324.877,1009.69ZM325.522,1004.88L320.708,1004.88C320.351,1004.88 320.063,1005.17 320.063,1005.52L320.063,1010.34C320.063,1010.69 320.351,1010.98 320.708,1010.98L325.522,1010.98C325.878,1010.98 326.167,1010.69 326.167,1010.34L326.167,1005.52C326.167,1005.17 325.878,1004.88 325.522,1004.88Z" style="fill:rgb(30,24,25);fill-rule:nonzero;"/>
    </g>
    <g transform="matrix(7.70209,0,0,11.3638,-2214.54,-11169.2)">
        <path d="M293.99,998.283L297.514,998.283L297.514,1001.81L293.99,1001.81L293.99,998.283ZM293.345,1003.1L298.159,1003.1C298.515,1003.1 298.804,1002.81 298.804,1002.45L298.804,997.639C298.804,997.282 298.515,996.993 298.159,996.993L293.345,996.993C292.988,996.993 292.7,997.282 292.7,997.639L292.7,1002.45C292.7,1002.81 292.988,1003.1 293.345,1003.1Z" style="fill:rgb(30,24,25);fill-rule:nonzero;"/>
    </g>
    <g transform="matrix(7.70209,0,0,11.3638,-2214.54,-11169.2)">
        <path d="M301.3,998.283L304.824,998.283L304.824,1001.81L301.3,1001.81L301.3,998.283ZM300.655,1003.1L305.469,1003.1C305.826,1003.1 306.114,1002.81 306.114,1002.45L306.114,997.639C306.114,997.282 305.826,996.993 305.469,996.993L300.655,996.993C300.298,996.993 300.01,997.282 300.01,997.639L300.01,1002.45C300.01,1002.81 300.298,1003.1 300.655,1003.1Z" style="fill:rgb(30,24,25);fill-rule:nonzero;"/>
    </g>
    <g transform="matrix(7.70209,0,0,11.3638,-2214.54,-11169.2)">
        <path d="M293.99,1006.17L297.514,1006.17L297.514,1009.69L293.99,1009.69L293.99,1006.17ZM298.159,1010.98C298.515,1010.98 298.804,1010.69 298.804,1010.34L298.804,1005.52C298.804,1005.17 298.515,1004.88 298.159,1004.88L293.345,1004.88C292.988,1004.88 292.7,1005.17 292.7,1005.52L292.7,1010.34C292.7,1010.69 292.988,1010.98 293.345,1010.98L298.159,1010.98Z" style="fill:rgb(30,24,25);fill-rule:nonzero;"/>
    </g>
    <g transform="matrix(7.70209,0,0,11.3638,-2214.54,-11169.2)">
        <path d="M301.3,1006.17L304.824,1006.17L304.824,1009.69L301.3,1009.69L301.3,1006.17ZM300.655,1010.98L305.469,1010.98C305.826,1010.98 306.114,1010.69 306.114,1010.34L306.114,1005.52C306.114,1005.17 305.826,1004.88 305.469,1004.88L300.655,1004.88C300.298,1004.88 300.01,1005.17 300.01,1005.52L300.01,1010.34C300.01,1010.69 300.298,1010.98 300.655,1010.98Z" style="fill:rgb(30,24,25);fill-rule:nonzero;"/>
    </g>
    <g transform="matrix(7.70209,0,0,11.3638,-2214.54,-11169.2)">
        <path d="M333.934,1006.17L337.459,1006.17L337.459,1009.69L333.934,1009.69L333.934,1006.17ZM333.289,1010.98L338.104,1010.98C338.459,1010.98 338.749,1010.69 338.749,1010.34L338.749,1005.52C338.749,1005.17 338.459,1004.88 338.104,1004.88L333.289,1004.88C332.933,1004.88 332.644,1005.17 332.644,1005.52L332.644,1010.34C332.644,1010.69 332.933,1010.98 333.289,1010.98Z" style="fill:rgb(30,24,25);fill-rule:nonzero;"/>
    </g>
    <g transform="matrix(7.70209,0,0,11.3638,-2214.54,-11169.2)">
        <path d="M341.244,1006.17L344.769,1006.17L344.769,1009.69L341.244,1009.69L341.244,1006.17ZM340.599,1010.98L345.414,1010.98C345.77,1010.98 346.059,1010.69 346.059,1010.34L346.059,1005.52C346.059,1005.17 345.77,1004.88 345.414,1004.88L340.599,1004.88C340.243,1004.88 339.954,1005.17 339.954,1005.52L339.954,1010.34C339.954,1010.69 340.243,1010.98 340.599,1010.98Z" style="fill:rgb(30,24,25);fill-rule:nonzero;"/>
    </g>
</svg>
