<?xml version="1.0" encoding="UTF-8" standalone="no"?>
<!DOCTYPE svg PUBLIC "-//W3C//DTD SVG 1.1//EN" "http://www.w3.org/Graphics/SVG/1.1/DTD/svg11.dtd">
<svg width="100%" height="100%" viewBox="0 0 491 491" version="1.1" xmlns="http://www.w3.org/2000/svg" xmlns:xlink="http://www.w3.org/1999/xlink" xml:space="preserve" xmlns:serif="http://www.serif.com/" style="fill-rule:evenodd;clip-rule:evenodd;stroke-linejoin:round;stroke-miterlimit:2;">
    <g transform="matrix(13.5666,0,0,16.5469,-5415.58,-9805.29)">
        <path d="M402.167,599.349L432.474,599.349L432.474,620.079L402.167,620.079L402.167,599.349ZM415.956,594.724L422.692,594.724L422.692,597.198L415.956,597.198L415.956,594.724ZM401.092,622.229L433.549,622.229C434.143,622.229 434.624,621.748 434.624,621.154L434.624,598.273C434.624,597.679 434.143,597.198 433.549,597.198L424.842,597.198L424.842,593.649C424.842,593.055 424.361,592.574 423.767,592.574L414.881,592.574C414.287,592.574 413.806,593.055 413.806,593.649L413.806,597.198L409.903,597.198L409.903,596.785C409.903,596.19 409.421,595.71 408.828,595.71L405.818,595.71C405.224,595.71 404.743,596.19 404.743,596.785L404.743,597.198L401.092,597.198C400.499,597.198 400.017,597.679 400.017,598.273L400.017,621.154C400.017,621.748 400.499,622.229 401.092,622.229Z" style="fill:rgb(30,24,25);fill-rule:nonzero;"/>
    </g>
    <g transform="matrix(13.5666,0,0,16.5469,-5415.58,-9805.29)">
        <path d="M422.096,615.941C418.71,615.941 415.956,613.187 415.956,609.801C415.956,606.415 418.71,603.66 422.096,603.66C425.482,603.66 428.237,606.415 428.237,609.801C428.237,613.187 425.482,615.941 422.096,615.941ZM422.096,601.51C417.525,601.51 413.806,605.229 413.806,609.801C413.806,614.372 417.525,618.092 422.096,618.092C426.667,618.092 430.387,614.372 430.387,609.801C430.387,605.229 426.667,601.51 422.096,601.51Z" style="fill:rgb(30,24,25);fill-rule:nonzero;"/>
    </g>
    <g transform="matrix(13.5666,0,0,16.5469,-5415.58,-9805.29)">
        <path d="M422.096,612.071C420.845,612.071 419.826,611.053 419.826,609.801C419.826,608.549 420.845,607.53 422.096,607.53C423.348,607.53 424.367,608.549 424.367,609.801C424.367,611.053 423.348,612.071 422.096,612.071ZM422.096,605.38C419.659,605.38 417.676,607.363 417.676,609.801C417.676,612.238 419.659,614.222 422.096,614.222C424.534,614.222 426.517,612.238 426.517,609.801C426.517,607.363 424.534,605.38 422.096,605.38Z" style="fill:rgb(30,24,25);fill-rule:nonzero;"/>
    </g>
    <g transform="matrix(13.5666,0,0,16.5469,-5415.58,-9805.29)">
        <path d="M409.473,604.081L405.603,604.081L405.603,602.6L409.473,602.6L409.473,604.081ZM410.548,600.449L404.528,600.449C403.934,600.449 403.453,600.93 403.453,601.524L403.453,605.156C403.453,605.75 403.934,606.23 404.528,606.23L410.548,606.23C411.142,606.23 411.623,605.75 411.623,605.156L411.623,601.524C411.623,600.93 411.142,600.449 410.548,600.449Z" style="fill:rgb(30,24,25);fill-rule:nonzero;"/>
    </g>
</svg>
