<?xml version="1.0" encoding="UTF-8" standalone="no"?>
<!DOCTYPE svg PUBLIC "-//W3C//DTD SVG 1.1//EN" "http://www.w3.org/Graphics/SVG/1.1/DTD/svg11.dtd">
<svg width="100%" height="100%" viewBox="0 0 491 491" version="1.1" xmlns="http://www.w3.org/2000/svg" xmlns:xlink="http://www.w3.org/1999/xlink" xml:space="preserve" xmlns:serif="http://www.serif.com/" style="fill-rule:evenodd;clip-rule:evenodd;stroke-linejoin:round;stroke-miterlimit:2;">
    <g transform="matrix(26.0979,0,0,27.5841,-13529.4,-10319.4)">
        <path d="M533.712,382.348C533.604,382.456 533.496,382.537 533.415,382.618C533.172,382.861 533.064,383.159 533.064,383.483C533.064,383.807 533.199,384.104 533.442,384.348C533.686,384.564 533.983,384.672 534.308,384.672C534.632,384.672 534.93,384.537 535.146,384.294C535.254,384.213 535.334,384.104 535.415,383.997C535.496,383.888 535.604,383.78 535.713,383.672C535.902,383.456 536.146,383.267 536.442,383.131C536.361,382.672 536.146,382.24 535.768,381.915C535.415,381.563 534.983,381.375 534.523,381.293C534.415,381.591 534.227,381.834 534.037,382.05C533.93,382.159 533.821,382.267 533.712,382.348ZM523.495,389.024L528.01,385.078L525.794,382.861L521.82,387.348L523.495,389.024ZM523.198,389.294L523.495,389.024L521.82,387.348L521.55,387.645L523.198,389.294ZM520.793,388.537L522.333,390.024L522.767,389.672L521.198,388.078L520.793,388.537ZM520.307,388.943C519.982,388.808 519.576,388.889 519.226,389.213C518.82,389.618 518.82,390.24 519.226,390.646L520.171,391.591C520.576,391.997 521.198,391.997 521.604,391.591C521.874,391.321 521.929,390.916 521.874,390.51L520.307,388.943ZM536.064,374.942L535.875,374.726C534.983,373.86 533.631,373.915 532.821,374.807L526.199,382.321L528.496,384.618L536.011,377.996C536.957,377.186 536.957,375.807 536.064,374.942ZM532.631,381.969C531.768,382.861 531.793,384.267 532.686,385.131C533.577,385.997 534.983,385.97 535.849,385.078C536.28,384.618 536.496,384.023 536.47,383.429C536.254,383.537 536.064,383.699 535.902,383.861C535.821,383.942 535.713,384.05 535.632,384.159C535.551,384.294 535.47,384.402 535.361,384.51C535.092,384.78 534.713,384.942 534.308,384.942L534.28,384.969C533.902,384.969 533.523,384.808 533.253,384.537C532.956,384.267 532.793,383.888 532.793,383.483C532.793,383.104 532.93,382.726 533.199,382.429C533.308,382.321 533.415,382.24 533.523,382.131C533.631,382.05 533.739,381.969 533.821,381.861C533.983,381.699 534.118,381.482 534.227,381.293C533.658,381.293 533.064,381.51 532.631,381.969Z" style="fill:rgb(3,4,4);"/>
    </g>
</svg>
