<?xml version="1.0" encoding="UTF-8" standalone="no"?>
<!DOCTYPE svg PUBLIC "-//W3C//DTD SVG 1.1//EN" "http://www.w3.org/Graphics/SVG/1.1/DTD/svg11.dtd">
<svg width="100%" height="100%" viewBox="0 0 1440 290" version="1.1" xmlns="http://www.w3.org/2000/svg" xmlns:xlink="http://www.w3.org/1999/xlink" xml:space="preserve" xmlns:serif="http://www.serif.com/" style="fill-rule:evenodd;clip-rule:evenodd;stroke-linejoin:round;stroke-miterlimit:2;">
    <g transform="matrix(0.523637,0,0,0.353427,-470.879,-469.672)">
        <path d="M1356.77,1459.6C1356.77,1430.24 1340.71,1406.45 1320.89,1406.45L1025.9,1406.45C1009.55,1406.45 996.286,1426.09 996.286,1450.33L996.286,1913.21C996.286,1921.16 998.416,1928.78 1002.21,1934.39C1006,1940.01 1011.14,1943.17 1016.5,1943.17L1331.57,1943.17C1345.49,1943.17 1356.77,1926.45 1356.77,1905.83L1356.77,1459.6Z" style="fill-opacity:0;"/>
        <path d="M1321.16,1398.19L1321.43,1398.2L1321.69,1398.2L1322.23,1398.22L1322.49,1398.24L1322.76,1398.25L1323.02,1398.27L1323.29,1398.29L1323.55,1398.32L1323.81,1398.34L1324.08,1398.37L1324.34,1398.4L1324.6,1398.44L1324.86,1398.47L1325.13,1398.51L1325.39,1398.55L1325.65,1398.6L1326.17,1398.69L1326.68,1398.79L1327.2,1398.9L1327.71,1399.02L1328.22,1399.15L1328.73,1399.29L1329.24,1399.44L1329.75,1399.6L1330.75,1399.94L1331.25,1400.13L1331.74,1400.32L1332.24,1400.52L1332.73,1400.74L1333.22,1400.95L1333.7,1401.18L1334.19,1401.42L1334.67,1401.67L1335.14,1401.92L1335.62,1402.18L1336.09,1402.45L1336.56,1402.73L1337.03,1403.02L1337.95,1403.62L1338.41,1403.93L1338.87,1404.25L1339.77,1404.91L1340.65,1405.61L1341.53,1406.33L1342.39,1407.09L1342.82,1407.48L1343.24,1407.87L1343.66,1408.28L1344.07,1408.68L1344.48,1409.1L1345.3,1409.96L1345.69,1410.4L1346.09,1410.84L1346.49,1411.29L1346.88,1411.75L1347.64,1412.69L1348.02,1413.17L1348.39,1413.65L1348.76,1414.15L1349.13,1414.64L1349.85,1415.66L1350.55,1416.7L1350.89,1417.23L1351.24,1417.77L1351.57,1418.31L1352.23,1419.41L1352.56,1419.97L1352.87,1420.54L1353.19,1421.11L1353.5,1421.68L1353.8,1422.27L1354.1,1422.85L1354.4,1423.45L1354.98,1424.65L1355.26,1425.26L1355.54,1425.88L1355.81,1426.5L1356.07,1427.12L1356.34,1427.75L1356.59,1428.39L1356.85,1429.03L1357.09,1429.67L1357.34,1430.32L1358.03,1432.3L1358.25,1432.97L1358.47,1433.65L1358.68,1434.32L1358.88,1435.01L1359.08,1435.69L1359.28,1436.39L1359.46,1437.08L1359.65,1437.78L1359.82,1438.49L1360,1439.19L1360.16,1439.91L1360.32,1440.62L1360.48,1441.34L1360.63,1442.07L1360.77,1442.79L1360.9,1443.52L1361.04,1444.26L1361.28,1445.74L1361.39,1446.48L1361.5,1447.23L1361.6,1447.98L1361.78,1449.5L1361.94,1451.02L1362.01,1451.79L1362.07,1452.55L1362.13,1453.33L1362.15,1453.72L1362.18,1454.11L1362.2,1454.49L1362.26,1455.66L1362.27,1456.05L1362.29,1456.45L1362.32,1457.62L1362.33,1458.02L1362.33,1458.41L1362.34,1458.81L1362.34,1906.41L1362.33,1907L1362.32,1907.58L1362.3,1908.16L1362.28,1908.75L1362.25,1909.33L1362.22,1909.9L1362.18,1910.48L1362.14,1911.05L1362.09,1911.62L1362.04,1912.19L1361.99,1912.76L1361.92,1913.32L1361.86,1913.89L1361.79,1914.45L1361.71,1915.01L1361.64,1915.56L1361.55,1916.12L1361.46,1916.67L1361.37,1917.21L1361.27,1917.76L1361.17,1918.3L1361.07,1918.84L1360.96,1919.38L1360.84,1919.91L1360.72,1920.45L1360.6,1920.98L1360.47,1921.5L1360.34,1922.03L1360.2,1922.55L1360.06,1923.06L1359.92,1923.58L1359.77,1924.09L1359.62,1924.59L1359.46,1925.1L1359.3,1925.6L1359.14,1926.09L1358.97,1926.59L1358.8,1927.08L1358.62,1927.56L1358.44,1928.05L1358.26,1928.53L1358.07,1929L1357.88,1929.47L1357.69,1929.94L1357.49,1930.41L1357.29,1930.87L1357.08,1931.32L1356.87,1931.78L1356.66,1932.22L1356.44,1932.67L1356.22,1933.11L1356,1933.55L1355.77,1933.98L1355.54,1934.41L1355.31,1934.83L1355.07,1935.25L1354.83,1935.67L1354.59,1936.08L1354.35,1936.48L1354.1,1936.88L1353.84,1937.28L1353.59,1937.68L1353.33,1938.07L1353.07,1938.45L1352.8,1938.83L1352.53,1939.2L1352.26,1939.57L1351.99,1939.94L1351.71,1940.3L1351.43,1940.65L1351.14,1941.01L1350.86,1941.35L1350.57,1941.69L1350.28,1942.03L1349.98,1942.36L1349.68,1942.68L1349.38,1943L1349.08,1943.32L1348.78,1943.63L1348.47,1943.93L1348.16,1944.23L1347.84,1944.53L1347.53,1944.81L1347.21,1945.1L1346.89,1945.37L1346.57,1945.64L1346.24,1945.91L1345.91,1946.17L1345.58,1946.43L1345.25,1946.68L1344.91,1946.92L1344.57,1947.16L1344.23,1947.39L1343.89,1947.61L1343.55,1947.83L1343.2,1948.05L1342.85,1948.25L1342.5,1948.45L1342.15,1948.65L1341.79,1948.84L1341.44,1949.02L1341.08,1949.2L1340.72,1949.37L1340.35,1949.53L1339.99,1949.69L1339.62,1949.84L1339.25,1949.98L1338.88,1950.12L1338.51,1950.25L1338.14,1950.38L1337.76,1950.49L1337.39,1950.6L1337.01,1950.71L1336.63,1950.8L1336.25,1950.89L1335.86,1950.98L1335.48,1951.05L1335.09,1951.12L1334.71,1951.18L1334.32,1951.24L1333.93,1951.29L1333.54,1951.33L1333.15,1951.36L1332.75,1951.39L1332.36,1951.4L1331.96,1951.41L1331.59,1951.42L1016.49,1951.42L1016.18,1951.42L1015.86,1951.41L1015.54,1951.39L1015.23,1951.37L1014.91,1951.35L1014.59,1951.31L1014.27,1951.28L1013.96,1951.23L1013.64,1951.18L1013.33,1951.13L1013.01,1951.07L1012.7,1951L1012.38,1950.93L1012.07,1950.85L1011.76,1950.77L1011.45,1950.68L1011.14,1950.58L1010.83,1950.48L1010.52,1950.38L1010.22,1950.27L1009.91,1950.15L1009.61,1950.03L1009.31,1949.9L1009,1949.77L1008.7,1949.63L1008.4,1949.49L1008.11,1949.34L1007.81,1949.18L1007.51,1949.02L1007.22,1948.86L1006.93,1948.69L1006.64,1948.51L1006.35,1948.33L1006.06,1948.14L1005.77,1947.95L1005.49,1947.76L1005.2,1947.55L1004.92,1947.35L1004.64,1947.13L1004.36,1946.92L1004.08,1946.7L1003.81,1946.47L1003.54,1946.24L1003.26,1946L1002.99,1945.76L1002.73,1945.51L1002.46,1945.26L1002.2,1945L1001.94,1944.74L1001.68,1944.47L1001.42,1944.2L1001.16,1943.92L1000.91,1943.64L1000.66,1943.35L1000.41,1943.06L1000.16,1942.77L999.916,1942.47L999.674,1942.16L999.433,1941.85L999.196,1941.53L998.96,1941.22L998.728,1940.89L998.497,1940.56L998.269,1940.23L998.044,1939.89L997.822,1939.55L997.603,1939.2L997.387,1938.86L997.175,1938.5L996.965,1938.15L996.759,1937.79L996.556,1937.43L996.356,1937.06L996.16,1936.69L995.966,1936.32L995.776,1935.94L995.589,1935.56L995.406,1935.18L995.226,1934.8L995.049,1934.41L994.875,1934.02L994.705,1933.62L994.538,1933.23L994.374,1932.83L994.214,1932.43L994.057,1932.02L993.904,1931.61L993.754,1931.2L993.607,1930.79L993.464,1930.38L993.325,1929.96L993.189,1929.54L993.056,1929.11L992.927,1928.69L992.801,1928.26L992.679,1927.83L992.56,1927.4L992.445,1926.97L992.334,1926.53L992.226,1926.09L992.122,1925.65L992.021,1925.21L991.924,1924.77L991.831,1924.32L991.741,1923.88L991.655,1923.43L991.572,1922.98L991.494,1922.53L991.419,1922.07L991.347,1921.62L991.28,1921.16L991.216,1920.7L991.156,1920.24L991.1,1919.78L991.047,1919.32L990.999,1918.85L990.954,1918.39L990.913,1917.92L990.875,1917.45L990.842,1916.99L990.813,1916.52L990.787,1916.05L990.765,1915.58L990.748,1915.11L990.734,1914.63L990.724,1914.16L990.718,1913.69L990.716,1913.24L990.716,1450.3L990.719,1449.65L990.727,1448.98L990.742,1448.32L990.762,1447.65L990.787,1446.99L990.818,1446.32L990.855,1445.66L990.897,1445L990.945,1444.35L990.998,1443.69L991.057,1443.04L991.121,1442.4L991.19,1441.75L991.265,1441.11L991.345,1440.46L991.431,1439.83L991.521,1439.19L991.617,1438.56L991.718,1437.93L991.824,1437.3L991.935,1436.68L992.051,1436.06L992.173,1435.44L992.299,1434.83L992.43,1434.21L992.566,1433.61L992.707,1433L992.853,1432.4L993.003,1431.8L993.158,1431.21L993.319,1430.62L993.483,1430.03L993.653,1429.45L993.827,1428.87L994.005,1428.29L994.189,1427.72L994.376,1427.15L994.568,1426.59L994.765,1426.03L994.966,1425.47L995.171,1424.92L995.381,1424.37L995.595,1423.83L995.813,1423.29L996.036,1422.75L996.263,1422.22L996.493,1421.69L996.728,1421.17L996.968,1420.65L997.211,1420.14L997.458,1419.63L997.709,1419.13L997.964,1418.63L998.223,1418.13L998.486,1417.64L998.753,1417.16L999.023,1416.68L999.298,1416.21L999.576,1415.74L999.858,1415.27L1000.14,1414.81L1000.43,1414.36L1000.73,1413.91L1001.02,1413.46L1001.32,1413.02L1001.63,1412.59L1001.93,1412.16L1002.24,1411.74L1002.56,1411.32L1002.87,1410.91L1003.19,1410.5L1003.52,1410.1L1003.85,1409.7L1004.18,1409.32L1004.51,1408.93L1004.85,1408.55L1005.19,1408.18L1005.53,1407.82L1005.88,1407.45L1006.23,1407.1L1006.58,1406.75L1006.93,1406.41L1007.29,1406.08L1007.65,1405.75L1008.02,1405.42L1008.38,1405.11L1008.75,1404.79L1009.13,1404.49L1009.5,1404.19L1009.88,1403.9L1010.26,1403.62L1010.64,1403.34L1011.03,1403.07L1011.42,1402.8L1011.81,1402.54L1012.2,1402.29L1012.6,1402.05L1013,1401.81L1013.4,1401.58L1013.8,1401.36L1014.21,1401.14L1014.62,1400.93L1015.03,1400.73L1015.44,1400.54L1015.86,1400.35L1016.27,1400.17L1016.69,1400L1017.11,1399.84L1017.54,1399.68L1017.96,1399.53L1018.39,1399.39L1018.82,1399.25L1019.25,1399.13L1019.68,1399.01L1020.11,1398.9L1020.55,1398.79L1020.99,1398.7L1021.43,1398.61L1021.87,1398.53L1022.31,1398.46L1022.75,1398.4L1023.2,1398.35L1023.65,1398.3L1024.1,1398.26L1024.55,1398.23L1025,1398.21L1025.45,1398.2L1025.88,1398.19L1321.16,1398.19ZM1025.9,1406.45L1025.52,1406.45L1025.14,1406.46L1024.76,1406.48L1024.38,1406.5L1024,1406.54L1023.62,1406.57L1023.25,1406.62L1022.87,1406.67L1022.5,1406.73L1022.13,1406.8L1021.76,1406.87L1021.39,1406.95L1021.02,1407.04L1020.66,1407.13L1020.3,1407.23L1019.93,1407.34L1019.57,1407.45L1019.21,1407.57L1018.86,1407.69L1018.5,1407.83L1018.15,1407.97L1017.79,1408.11L1017.44,1408.26L1017.1,1408.42L1016.75,1408.58L1016.4,1408.75L1016.06,1408.93L1015.72,1409.11L1015.38,1409.3L1015.04,1409.49L1014.71,1409.69L1014.37,1409.89L1014.04,1410.11L1013.71,1410.32L1013.39,1410.54L1013.06,1410.77L1012.74,1411.01L1012.42,1411.25L1012.1,1411.49L1011.78,1411.74L1011.47,1412L1011.16,1412.26L1010.85,1412.53L1010.55,1412.8L1010.24,1413.08L1009.94,1413.36L1009.64,1413.65L1009.34,1413.94L1009.05,1414.24L1008.76,1414.54L1008.47,1414.85L1008.18,1415.16L1007.9,1415.48L1007.62,1415.8L1007.34,1416.13L1007.06,1416.46L1006.79,1416.8L1006.52,1417.15L1006.25,1417.49L1005.99,1417.85L1005.73,1418.2L1005.47,1418.56L1005.21,1418.93L1004.96,1419.3L1004.71,1419.67L1004.46,1420.05L1004.22,1420.43L1003.98,1420.82L1003.74,1421.21L1003.51,1421.61L1003.28,1422.01L1003.05,1422.41L1002.82,1422.82L1002.6,1423.23L1002.38,1423.65L1002.17,1424.07L1001.96,1424.5L1001.75,1424.92L1001.55,1425.36L1001.34,1425.79L1001.15,1426.23L1000.95,1426.67L1000.76,1427.12L1000.57,1427.57L1000.39,1428.03L1000.21,1428.48L1000.03,1428.94L999.861,1429.41L999.691,1429.88L999.526,1430.35L999.364,1430.82L999.206,1431.3L999.052,1431.78L998.902,1432.27L998.756,1432.75L998.613,1433.25L998.475,1433.74L998.34,1434.24L998.21,1434.74L998.083,1435.24L997.961,1435.74L997.842,1436.25L997.728,1436.76L997.618,1437.28L997.511,1437.79L997.41,1438.31L997.312,1438.83L997.218,1439.36L997.129,1439.89L997.044,1440.41L996.964,1440.95L996.888,1441.48L996.816,1442.02L996.749,1442.56L996.686,1443.1L996.627,1443.64L996.573,1444.19L996.524,1444.74L996.479,1445.29L996.439,1445.84L996.403,1446.39L996.372,1446.95L996.346,1447.51L996.325,1448.07L996.308,1448.63L996.296,1449.19L996.288,1449.76L996.286,1450.33L996.286,1913.21L996.288,1913.58L996.292,1913.95L996.3,1914.33L996.311,1914.7L996.325,1915.07L996.342,1915.44L996.362,1915.8L996.385,1916.17L996.411,1916.54L996.44,1916.9L996.472,1917.27L996.508,1917.63L996.546,1918L996.587,1918.36L996.631,1918.72L996.678,1919.08L996.728,1919.44L996.781,1919.8L996.837,1920.16L996.896,1920.51L996.958,1920.87L997.022,1921.22L997.09,1921.57L997.16,1921.92L997.233,1922.27L997.309,1922.62L997.388,1922.97L997.47,1923.31L997.555,1923.65L997.642,1924L997.732,1924.34L997.825,1924.67L997.921,1925.01L998.019,1925.35L998.121,1925.68L998.225,1926.01L998.331,1926.34L998.441,1926.67L998.553,1926.99L998.668,1927.32L998.785,1927.64L998.906,1927.96L999.029,1928.28L999.154,1928.59L999.282,1928.9L999.413,1929.22L999.547,1929.52L999.683,1929.83L999.822,1930.13L999.963,1930.44L1000.11,1930.74L1000.25,1931.03L1000.4,1931.33L1000.55,1931.62L1000.87,1932.2L1001.02,1932.48L1001.19,1932.76L1001.35,1933.04L1001.52,1933.32L1002.03,1934.13L1002.75,1935.17L1002.93,1935.42L1003.12,1935.66L1003.31,1935.91L1003.5,1936.15L1003.69,1936.38L1003.88,1936.62L1004.08,1936.84L1004.28,1937.07L1004.68,1937.51L1005.08,1937.93L1005.29,1938.13L1005.49,1938.34L1005.7,1938.53L1005.91,1938.73L1006.12,1938.92L1006.34,1939.1L1006.55,1939.29L1006.77,1939.46L1006.98,1939.64L1007.2,1939.81L1007.42,1939.97L1007.64,1940.14L1007.87,1940.29L1008.09,1940.45L1008.31,1940.6L1008.54,1940.74L1008.77,1940.89L1009,1941.02L1009.23,1941.16L1009.46,1941.29L1010.15,1941.65L1010.39,1941.76L1010.62,1941.87L1010.86,1941.98L1011.1,1942.08L1011.82,1942.35L1012.54,1942.59L1012.78,1942.65L1013.03,1942.72L1013.27,1942.78L1013.52,1942.84L1013.76,1942.89L1014.01,1942.94L1014.51,1943.02L1014.75,1943.05L1015.25,1943.11L1015.75,1943.15L1016,1943.16L1016.25,1943.16L1016.5,1943.17L1331.57,1943.17L1331.89,1943.16L1332.22,1943.15L1332.54,1943.14L1332.86,1943.12L1333.19,1943.09L1333.51,1943.06L1333.83,1943.02L1334.14,1942.97L1334.46,1942.92L1334.78,1942.87L1335.09,1942.8L1335.4,1942.74L1335.72,1942.66L1336.03,1942.58L1336.34,1942.5L1336.65,1942.41L1336.95,1942.31L1337.26,1942.21L1337.56,1942.1L1337.87,1941.99L1338.17,1941.87L1338.47,1941.75L1338.77,1941.62L1339.06,1941.49L1339.36,1941.35L1339.65,1941.2L1339.94,1941.06L1340.23,1940.9L1340.52,1940.74L1340.81,1940.58L1341.09,1940.41L1341.38,1940.23L1341.66,1940.05L1341.94,1939.87L1342.22,1939.68L1342.49,1939.48L1342.77,1939.29L1343.04,1939.08L1343.31,1938.87L1343.58,1938.66L1343.85,1938.44L1344.11,1938.22L1344.38,1937.99L1344.64,1937.76L1344.89,1937.52L1345.15,1937.28L1345.41,1937.04L1345.66,1936.79L1345.91,1936.54L1346.16,1936.28L1346.4,1936.02L1346.65,1935.75L1346.89,1935.48L1347.13,1935.2L1347.36,1934.92L1347.6,1934.64L1347.83,1934.35L1348.06,1934.06L1348.29,1933.77L1348.51,1933.47L1348.74,1933.16L1348.96,1932.86L1349.17,1932.54L1349.39,1932.23L1349.6,1931.91L1349.81,1931.59L1350.02,1931.26L1350.22,1930.93L1350.42,1930.6L1350.62,1930.26L1350.82,1929.92L1351.02,1929.58L1351.21,1929.23L1351.39,1928.88L1351.58,1928.53L1351.76,1928.17L1351.94,1927.81L1352.12,1927.44L1352.29,1927.07L1352.47,1926.7L1352.63,1926.33L1352.8,1925.95L1352.96,1925.57L1353.12,1925.19L1353.28,1924.8L1353.43,1924.41L1353.58,1924.02L1353.73,1923.62L1353.87,1923.23L1354.01,1922.83L1354.15,1922.42L1354.29,1922.01L1354.42,1921.61L1354.54,1921.19L1354.67,1920.78L1354.79,1920.36L1354.91,1919.94L1355.02,1919.52L1355.13,1919.09L1355.24,1918.66L1355.35,1918.23L1355.45,1917.8L1355.54,1917.37L1355.64,1916.93L1355.73,1916.49L1355.81,1916.05L1355.9,1915.6L1355.98,1915.16L1356.05,1914.71L1356.13,1914.26L1356.19,1913.81L1356.26,1913.35L1356.32,1912.89L1356.38,1912.44L1356.43,1911.98L1356.48,1911.51L1356.53,1911.05L1356.57,1910.58L1356.61,1910.11L1356.64,1909.64L1356.67,1909.17L1356.7,1908.7L1356.72,1908.22L1356.74,1907.75L1356.75,1907.27L1356.76,1906.79L1356.77,1906.31L1356.77,1905.83L1356.77,1459.6L1356.77,1459.26L1356.77,1458.91L1356.76,1458.57L1356.76,1458.23L1356.75,1457.88L1356.74,1457.54L1356.73,1457.2L1356.72,1456.86L1356.71,1456.52L1356.7,1456.18L1356.68,1455.85L1356.66,1455.51L1356.65,1455.17L1356.63,1454.84L1356.61,1454.5L1356.59,1454.16L1356.56,1453.83L1356.54,1453.5L1356.48,1452.83L1356.42,1452.16L1356.36,1451.5L1356.29,1450.85L1356.21,1450.19L1356.13,1449.54L1356.04,1448.89L1355.95,1448.24L1355.85,1447.6L1355.75,1446.95L1355.64,1446.32L1355.53,1445.68L1355.41,1445.05L1355.29,1444.42L1355.16,1443.79L1355.02,1443.17L1354.88,1442.55L1354.74,1441.93L1354.59,1441.32L1354.44,1440.71L1354.28,1440.11L1354.12,1439.51L1353.95,1438.91L1353.78,1438.32L1353.6,1437.72L1353.42,1437.14L1353.23,1436.56L1353.04,1435.98L1352.85,1435.4L1352.64,1434.83L1352.44,1434.26L1352.23,1433.7L1352.02,1433.14L1351.8,1432.59L1351.58,1432.04L1351.35,1431.49L1351.12,1430.95L1350.88,1430.41L1350.64,1429.88L1350.4,1429.35L1350.15,1428.83L1349.9,1428.31L1349.64,1427.8L1349.38,1427.29L1349.12,1426.78L1348.85,1426.28L1348.58,1425.79L1348.3,1425.3L1348.02,1424.81L1347.74,1424.33L1347.45,1423.86L1347.16,1423.39L1346.86,1422.93L1346.57,1422.47L1346.26,1422.01L1345.96,1421.57L1345.65,1421.12L1345.33,1420.69L1345.02,1420.25L1344.7,1419.83L1344.37,1419.41L1344.05,1418.99L1343.71,1418.58L1343.38,1418.18L1343.04,1417.78L1342.7,1417.39L1342.36,1417.01L1342.01,1416.63L1341.66,1416.25L1341.31,1415.88L1340.95,1415.52L1340.59,1415.17L1340.23,1414.82L1339.87,1414.48L1339.5,1414.14L1339.13,1413.81L1338.75,1413.49L1338.38,1413.17L1338,1412.86L1337.61,1412.56L1337.23,1412.26L1336.84,1411.97L1336.45,1411.69L1336.06,1411.41L1335.66,1411.14L1335.26,1410.88L1334.86,1410.62L1334.45,1410.37L1334.05,1410.13L1333.64,1409.9L1333.23,1409.67L1332.82,1409.45L1332.4,1409.24L1331.98,1409.03L1331.56,1408.84L1331.14,1408.64L1330.72,1408.46L1330.29,1408.29L1329.86,1408.12L1329.43,1407.96L1329,1407.81L1328.56,1407.66L1328.13,1407.53L1327.69,1407.4L1327.25,1407.28L1326.8,1407.16L1326.36,1407.06L1325.91,1406.96L1325.46,1406.87L1325.01,1406.79L1324.79,1406.76L1324.56,1406.72L1324.34,1406.69L1324.11,1406.66L1323.88,1406.63L1323.65,1406.6L1323.43,1406.58L1323.2,1406.55L1322.97,1406.53L1322.74,1406.52L1322.51,1406.5L1322.28,1406.49L1322.05,1406.47L1321.82,1406.46L1321.59,1406.45L1321.36,1406.45L1321.13,1406.45L1320.89,1406.45L1025.9,1406.45Z"/>
    </g>
    <g transform="matrix(0.435022,0,0,0.313637,-355.295,-399.023)">
        <path d="M1395.09,1359.88C1395.09,1347.01 1387.56,1336.57 1378.28,1336.57L940.813,1336.57C931.274,1336.57 922.126,1341.82 915.381,1351.18C908.636,1360.54 904.847,1373.22 904.847,1386.45L904.847,2079.81C904.847,2091.27 908.131,2102.27 913.976,2110.38C919.822,2118.49 927.75,2123.04 936.017,2123.04L1339.94,2123.04C1354.57,2123.04 1368.59,2114.98 1378.94,2100.64C1389.28,2086.29 1395.09,2066.84 1395.09,2046.55L1395.09,1359.88Z" style="fill:rgb(235,235,235);fill-opacity:0;"/>
        <path d="M1378.95,1287.43L1379.61,1287.45L1380.28,1287.48L1380.94,1287.52L1381.6,1287.57L1382.26,1287.63L1382.92,1287.71L1384.24,1287.89L1384.89,1288L1385.54,1288.12L1386.84,1288.4L1387.49,1288.55L1388.77,1288.89L1389.41,1289.08L1390.05,1289.28L1390.68,1289.49L1391.31,1289.71L1391.94,1289.94L1392.56,1290.18L1393.18,1290.43L1393.8,1290.69L1394.42,1290.96L1395.03,1291.24L1395.64,1291.53L1396.84,1292.15L1397.44,1292.47L1398.04,1292.8L1398.63,1293.14L1399.21,1293.49L1399.79,1293.85L1400.37,1294.22L1400.95,1294.6L1401.52,1294.98L1402.09,1295.38L1402.65,1295.78L1403.2,1296.2L1403.76,1296.62L1404.31,1297.05L1404.85,1297.49L1405.39,1297.94L1405.93,1298.4L1406.99,1299.34L1408.03,1300.32L1408.55,1300.82L1409.05,1301.33L1409.56,1301.84L1410.06,1302.37L1410.55,1302.9L1411.04,1303.44L1411.53,1303.99L1412.01,1304.55L1412.48,1305.11L1412.95,1305.68L1413.87,1306.84L1414.33,1307.44L1414.78,1308.04L1415.66,1309.26L1416.09,1309.88L1416.52,1310.52L1416.94,1311.15L1417.36,1311.8L1417.77,1312.45L1418.18,1313.11L1418.58,1313.77L1418.97,1314.44L1419.36,1315.12L1419.75,1315.81L1420.12,1316.5L1420.5,1317.2L1420.86,1317.9L1421.22,1318.61L1421.58,1319.34L1421.93,1320.06L1422.27,1320.79L1422.6,1321.53L1422.94,1322.27L1423.26,1323.03L1423.58,1323.78L1423.89,1324.54L1424.19,1325.31L1424.49,1326.09L1424.79,1326.86L1425.35,1328.44L1425.89,1330.04L1426.15,1330.85L1426.4,1331.66L1426.65,1332.48L1426.88,1333.3L1427.12,1334.13L1427.56,1335.81L1427.77,1336.65L1428.17,1338.35L1428.35,1339.21L1428.54,1340.07L1428.71,1340.94L1428.87,1341.8L1429.03,1342.69L1429.18,1343.57L1429.32,1344.44L1429.46,1345.32L1429.59,1346.22L1429.71,1347.12L1429.82,1348.01L1429.92,1348.9L1430.02,1349.81L1430.18,1351.63L1430.25,1352.53L1430.32,1353.44L1430.37,1354.35L1430.45,1356.19L1430.48,1357.12L1430.5,1358.03L1430.52,1358.95L1430.52,2047.33L1430.51,2048.11L1430.5,2048.89L1430.49,2049.67L1430.48,2050.45L1430.46,2051.22L1430.43,2052L1430.41,2052.78L1430.38,2053.56L1430.35,2054.33L1430.31,2055.1L1430.27,2055.88L1430.23,2056.65L1430.18,2057.42L1430.13,2058.2L1430.08,2058.97L1430.02,2059.73L1429.96,2060.51L1429.89,2061.28L1429.83,2062.04L1429.76,2062.8L1429.68,2063.57L1429.61,2064.34L1429.53,2065.1L1429.44,2065.87L1429.36,2066.63L1429.27,2067.39L1429.17,2068.15L1429.07,2068.91L1428.97,2069.66L1428.87,2070.42L1428.76,2071.18L1428.65,2071.93L1428.54,2072.68L1428.42,2073.43L1428.3,2074.18L1428.18,2074.93L1428.05,2075.68L1427.92,2076.43L1427.79,2077.18L1427.65,2077.91L1427.51,2078.66L1427.37,2079.41L1427.22,2080.14L1427.07,2080.88L1426.92,2081.62L1426.76,2082.36L1426.6,2083.09L1426.44,2083.82L1426.28,2084.55L1426.11,2085.28L1425.93,2086.01L1425.76,2086.74L1425.58,2087.46L1425.4,2088.19L1425.21,2088.91L1425.03,2089.63L1424.84,2090.35L1424.64,2091.07L1424.44,2091.78L1424.24,2092.5L1424.04,2093.21L1423.83,2093.92L1423.62,2094.63L1423.41,2095.34L1423.19,2096.04L1422.98,2096.74L1422.76,2097.44L1422.53,2098.14L1422.3,2098.84L1422.07,2099.54L1421.84,2100.23L1421.6,2100.92L1421.36,2101.61L1421.11,2102.3L1420.87,2102.99L1420.62,2103.67L1420.36,2104.35L1420.11,2105.03L1419.85,2105.71L1419.59,2106.39L1419.32,2107.06L1419.06,2107.73L1418.78,2108.4L1418.51,2109.07L1418.23,2109.73L1417.95,2110.39L1417.67,2111.05L1417.38,2111.71L1417.1,2112.37L1416.81,2113.02L1416.51,2113.67L1416.21,2114.32L1415.91,2114.97L1415.61,2115.61L1415.3,2116.25L1414.99,2116.89L1414.68,2117.53L1414.36,2118.16L1414.05,2118.79L1413.73,2119.42L1413.4,2120.05L1413.08,2120.67L1412.74,2121.3L1412.41,2121.91L1412.08,2122.53L1411.74,2123.14L1411.4,2123.75L1411.06,2124.36L1410.71,2124.97L1410.36,2125.57L1410.01,2126.17L1409.65,2126.77L1409.29,2127.37L1408.93,2127.96L1408.57,2128.55L1408.2,2129.13L1407.83,2129.72L1407.46,2130.3L1407.09,2130.88L1406.71,2131.45L1406.33,2132.02L1405.94,2132.59L1405.56,2133.16L1405.17,2133.72L1404.78,2134.28L1404.39,2134.83L1403.99,2135.39L1403.59,2135.94L1403.19,2136.48L1402.79,2137.03L1402.38,2137.57L1401.97,2138.1L1401.56,2138.63L1401.15,2139.16L1400.74,2139.68L1400.32,2140.2L1399.9,2140.72L1399.48,2141.23L1399.06,2141.74L1398.63,2142.24L1398.21,2142.74L1397.78,2143.24L1397.35,2143.73L1396.91,2144.22L1396.48,2144.71L1396.04,2145.19L1395.6,2145.66L1395.16,2146.14L1394.72,2146.61L1394.28,2147.07L1393.83,2147.53L1393.38,2147.99L1392.93,2148.44L1392.48,2148.89L1392.03,2149.34L1391.57,2149.78L1391.11,2150.22L1390.65,2150.65L1390.19,2151.08L1389.73,2151.5L1389.27,2151.92L1388.8,2152.34L1388.33,2152.75L1387.86,2153.16L1387.39,2153.57L1386.92,2153.97L1386.44,2154.36L1385.97,2154.76L1385.49,2155.14L1385.01,2155.53L1384.53,2155.91L1384.05,2156.28L1383.56,2156.66L1383.08,2157.02L1382.59,2157.38L1382.1,2157.74L1381.61,2158.1L1381.12,2158.45L1380.63,2158.8L1380.13,2159.14L1379.64,2159.48L1379.14,2159.81L1378.64,2160.14L1378.14,2160.46L1377.64,2160.78L1377.14,2161.1L1376.63,2161.42L1376.13,2161.72L1375.62,2162.03L1375.11,2162.33L1374.6,2162.62L1374.09,2162.91L1373.58,2163.2L1373.07,2163.48L1372.55,2163.76L1372.04,2164.03L1371.52,2164.3L1371,2164.57L1370.48,2164.83L1369.96,2165.08L1369.44,2165.34L1368.92,2165.58L1368.39,2165.83L1367.87,2166.07L1367.34,2166.3L1366.81,2166.53L1366.29,2166.75L1365.76,2166.97L1365.22,2167.19L1364.69,2167.4L1364.16,2167.61L1363.63,2167.81L1363.09,2168.01L1362.56,2168.21L1362.02,2168.39L1361.48,2168.58L1360.94,2168.76L1360.4,2168.94L1359.86,2169.11L1359.32,2169.28L1358.78,2169.44L1358.24,2169.6L1357.7,2169.75L1357.15,2169.9L1356.6,2170.04L1356.06,2170.18L1355.51,2170.32L1354.96,2170.45L1354.41,2170.57L1353.87,2170.69L1353.32,2170.81L1352.77,2170.92L1352.21,2171.03L1351.66,2171.13L1351.11,2171.23L1350.56,2171.32L1350,2171.41L1349.45,2171.49L1348.89,2171.57L1348.34,2171.64L1347.78,2171.71L1347.22,2171.78L1346.66,2171.84L1346.11,2171.89L1345.55,2171.94L1344.99,2171.99L1344.43,2172.03L1343.87,2172.07L1343.31,2172.1L1342.75,2172.13L1342.19,2172.15L1341.63,2172.16L1341.06,2172.18L1340.5,2172.18L1340,2172.18L935.908,2172.18L935.191,2172.18L934.365,2172.16L933.541,2172.12L932.716,2172.07L931.892,2172.01L931.072,2171.93L930.255,2171.84L929.435,2171.73L928.618,2171.61L927.807,2171.48L926.993,2171.33L926.182,2171.17L925.375,2171L924.568,2170.81L923.764,2170.61L922.961,2170.39L922.164,2170.17L921.369,2169.92L920.574,2169.67L919.781,2169.4L918.994,2169.12L918.208,2168.82L917.424,2168.51L916.648,2168.19L915.87,2167.86L915.095,2167.51L914.328,2167.15L913.56,2166.78L912.796,2166.39L912.037,2165.99L911.282,2165.58L910.53,2165.15L909.782,2164.72L909.037,2164.27L908.295,2163.8L907.56,2163.33L906.827,2162.84L906.1,2162.34L905.375,2161.83L904.656,2161.3L903.942,2160.77L903.229,2160.22L902.522,2159.65L901.822,2159.08L901.126,2158.49L900.436,2157.9L899.749,2157.29L899.067,2156.66L898.39,2156.03L897.719,2155.39L897.054,2154.73L896.392,2154.06L895.737,2153.38L895.089,2152.69L894.444,2151.98L893.806,2151.26L893.174,2150.54L892.548,2149.8L891.929,2149.05L891.314,2148.29L890.706,2147.51L890.106,2146.73L889.51,2145.93L888.922,2145.13L888.341,2144.31L887.768,2143.49L887.203,2142.65L886.646,2141.81L886.096,2140.96L885.556,2140.1L885.024,2139.23L884.499,2138.35L883.983,2137.47L883.474,2136.58L882.975,2135.68L882.484,2134.77L882.002,2133.85L881.527,2132.93L881.061,2131.99L880.605,2131.06L880.157,2130.11L879.716,2129.16L879.285,2128.2L878.863,2127.24L878.45,2126.26L878.044,2125.28L877.648,2124.3L877.261,2123.31L876.882,2122.31L876.512,2121.3L876.152,2120.29L875.801,2119.28L875.458,2118.26L875.124,2117.23L874.8,2116.2L874.484,2115.16L874.178,2114.12L873.881,2113.07L873.593,2112.01L873.315,2110.96L873.046,2109.89L872.786,2108.82L872.535,2107.75L872.294,2106.68L872.062,2105.59L871.84,2104.51L871.627,2103.42L871.424,2102.32L871.23,2101.23L871.046,2100.13L870.871,2099.02L870.707,2097.91L870.552,2096.8L870.406,2095.69L870.271,2094.57L870.145,2093.45L870.029,2092.32L869.923,2091.2L869.827,2090.07L869.741,2088.94L869.665,2087.8L869.599,2086.66L869.543,2085.53L869.497,2084.39L869.461,2083.24L869.435,2082.1L869.42,2080.95L869.416,2079.96L869.416,1386.3L869.42,1385.23L869.437,1384L869.464,1382.77L869.503,1381.55L869.552,1380.32L869.612,1379.1L869.683,1377.88L869.764,1376.67L869.857,1375.45L869.96,1374.24L870.073,1373.04L870.197,1371.83L870.332,1370.63L870.478,1369.43L870.633,1368.24L870.8,1367.04L870.976,1365.86L871.163,1364.67L871.361,1363.49L871.568,1362.31L871.786,1361.14L872.015,1359.97L872.253,1358.81L872.501,1357.65L872.76,1356.5L873.029,1355.35L873.307,1354.2L873.596,1353.06L873.895,1351.93L874.203,1350.8L874.521,1349.68L874.85,1348.56L875.188,1347.44L875.536,1346.34L875.893,1345.24L876.26,1344.14L876.637,1343.05L877.024,1341.97L877.42,1340.89L877.826,1339.82L878.241,1338.76L878.665,1337.7L879.1,1336.65L879.543,1335.61L879.996,1334.58L880.458,1333.55L880.93,1332.53L881.41,1331.51L881.9,1330.51L882.4,1329.51L882.908,1328.52L883.425,1327.54L883.952,1326.56L884.487,1325.6L885.032,1324.64L885.585,1323.69L886.147,1322.75L886.718,1321.82L887.298,1320.9L887.887,1319.99L888.484,1319.08L889.089,1318.19L889.704,1317.3L890.327,1316.43L890.958,1315.57L891.595,1314.71L892.24,1313.87L892.891,1313.04L893.549,1312.23L894.214,1311.42L894.885,1310.63L895.563,1309.85L896.247,1309.08L896.937,1308.33L897.633,1307.59L898.335,1306.86L899.043,1306.14L899.757,1305.43L900.476,1304.74L901.202,1304.06L901.932,1303.39L902.668,1302.74L903.41,1302.1L904.156,1301.47L904.908,1300.86L905.665,1300.26L906.426,1299.67L907.193,1299.09L907.964,1298.53L908.74,1297.98L909.521,1297.44L910.306,1296.92L911.096,1296.41L911.89,1295.91L912.688,1295.43L913.49,1294.96L914.296,1294.51L915.107,1294.07L915.921,1293.64L916.739,1293.22L917.561,1292.82L918.386,1292.44L919.214,1292.06L920.047,1291.7L920.883,1291.36L921.721,1291.03L922.563,1290.71L923.409,1290.41L924.257,1290.12L925.108,1289.85L925.962,1289.59L926.818,1289.35L927.677,1289.11L928.539,1288.9L929.403,1288.7L930.27,1288.51L931.139,1288.34L932.009,1288.18L932.882,1288.04L933.757,1287.91L934.634,1287.8L935.512,1287.7L936.392,1287.61L937.274,1287.55L938.157,1287.49L939.041,1287.45L939.926,1287.43L940.703,1287.42L1378.39,1287.42L1378.95,1287.43ZM940.813,1336.57L940.366,1336.57L939.92,1336.58L939.474,1336.6L939.029,1336.63L938.585,1336.66L938.142,1336.71L937.699,1336.76L937.258,1336.81L936.817,1336.88L936.378,1336.95L935.939,1337.03L935.502,1337.12L935.065,1337.21L934.63,1337.31L934.196,1337.42L933.763,1337.54L933.332,1337.66L932.902,1337.79L932.473,1337.93L932.046,1338.07L931.62,1338.23L931.196,1338.38L930.773,1338.55L930.352,1338.73L929.933,1338.9L929.516,1339.09L929.1,1339.29L928.686,1339.49L928.274,1339.7L927.864,1339.91L927.455,1340.14L927.049,1340.37L926.645,1340.6L926.243,1340.85L925.843,1341.1L925.445,1341.35L925.049,1341.62L924.656,1341.88L924.265,1342.16L923.877,1342.44L923.49,1342.74L923.107,1343.03L922.726,1343.34L922.347,1343.64L921.971,1343.96L921.597,1344.29L921.227,1344.61L920.859,1344.95L920.493,1345.29L920.131,1345.64L919.772,1346L919.415,1346.36L919.061,1346.73L918.711,1347.1L918.363,1347.48L918.019,1347.87L917.678,1348.26L917.34,1348.66L917.005,1349.06L916.673,1349.47L916.345,1349.89L916.02,1350.32L915.699,1350.74L915.381,1351.18L915.067,1351.62L914.757,1352.07L914.452,1352.52L914.151,1352.97L913.854,1353.43L913.562,1353.9L913.275,1354.37L912.992,1354.84L912.713,1355.32L912.439,1355.8L912.169,1356.29L911.904,1356.78L911.643,1357.27L911.387,1357.77L911.136,1358.27L910.889,1358.78L910.647,1359.29L910.41,1359.8L910.177,1360.32L909.949,1360.84L909.725,1361.37L909.507,1361.9L909.293,1362.43L909.084,1362.96L908.879,1363.5L908.68,1364.05L908.485,1364.59L908.295,1365.14L908.11,1365.69L907.93,1366.25L907.755,1366.8L907.584,1367.36L907.419,1367.93L907.259,1368.49L907.103,1369.06L906.953,1369.63L906.807,1370.21L906.667,1370.79L906.531,1371.36L906.401,1371.95L906.276,1372.53L906.156,1373.12L906.041,1373.7L905.931,1374.3L905.827,1374.89L905.727,1375.48L905.633,1376.08L905.544,1376.68L905.46,1377.28L905.382,1377.88L905.309,1378.48L905.241,1379.09L905.178,1379.69L905.121,1380.3L905.069,1380.91L905.023,1381.52L904.981,1382.14L904.946,1382.75L904.916,1383.37L904.891,1383.98L904.871,1384.6L904.858,1385.22L904.849,1385.83L904.847,1386.45L904.847,2079.81L904.849,2080.34L904.856,2080.88L904.868,2081.42L904.885,2081.95L904.906,2082.49L904.933,2083.02L904.964,2083.55L904.999,2084.08L905.039,2084.61L905.084,2085.14L905.134,2085.66L905.188,2086.19L905.247,2086.72L905.31,2087.24L905.378,2087.76L905.451,2088.28L905.528,2088.8L905.61,2089.32L905.696,2089.83L905.787,2090.35L905.882,2090.86L905.981,2091.37L906.085,2091.88L906.194,2092.38L906.307,2092.89L906.424,2093.39L906.546,2093.89L906.672,2094.38L906.802,2094.88L906.937,2095.37L907.076,2095.86L907.219,2096.35L907.367,2096.84L907.519,2097.32L907.675,2097.8L907.835,2098.28L908,2098.76L908.169,2099.23L908.342,2099.7L908.519,2100.17L908.7,2100.63L908.885,2101.09L909.075,2101.55L909.268,2102L909.466,2102.46L909.668,2102.91L909.874,2103.35L910.084,2103.79L910.297,2104.23L910.515,2104.67L910.737,2105.1L910.963,2105.53L911.193,2105.95L911.426,2106.38L911.664,2106.79L911.906,2107.21L912.151,2107.62L912.4,2108.02L912.653,2108.43L912.91,2108.82L913.171,2109.22L913.436,2109.61L913.704,2110L913.976,2110.38L914.252,2110.76L914.53,2111.13L914.812,2111.49L915.096,2111.86L915.384,2112.21L915.674,2112.56L915.967,2112.91L916.263,2113.25L916.561,2113.59L916.862,2113.91L917.166,2114.24L917.473,2114.56L917.782,2114.87L918.093,2115.18L918.407,2115.48L918.724,2115.78L919.043,2116.07L919.364,2116.35L919.688,2116.63L920.013,2116.91L920.342,2117.18L920.672,2117.44L921.005,2117.7L921.339,2117.95L921.676,2118.19L922.015,2118.43L922.356,2118.67L922.698,2118.9L923.043,2119.12L923.39,2119.34L923.738,2119.55L924.089,2119.75L924.441,2119.95L924.795,2120.14L925.15,2120.33L925.507,2120.51L925.866,2120.68L926.226,2120.85L926.588,2121.02L927.316,2121.32L927.683,2121.47L928.05,2121.61L928.419,2121.74L929.161,2121.98L929.534,2122.1L929.908,2122.2L930.283,2122.3L930.659,2122.4L931.036,2122.49L931.414,2122.57L931.793,2122.64L932.173,2122.71L932.554,2122.77L932.936,2122.83L933.319,2122.88L933.702,2122.92L934.087,2122.96L934.472,2122.99L934.857,2123.01L935.243,2123.03L935.63,2123.04L1340.28,2123.04L1340.63,2123.03L1340.97,2123.03L1341.31,2123.02L1341.65,2123L1341.99,2122.99L1342.33,2122.97L1342.67,2122.95L1343.02,2122.92L1343.36,2122.89L1343.7,2122.86L1344.04,2122.83L1344.38,2122.79L1344.71,2122.75L1345.05,2122.71L1345.39,2122.67L1345.73,2122.62L1346.07,2122.57L1346.4,2122.51L1346.74,2122.46L1347.08,2122.4L1347.41,2122.34L1347.75,2122.27L1348.08,2122.2L1348.42,2122.13L1348.75,2122.06L1349.09,2121.98L1349.42,2121.9L1349.75,2121.82L1350.09,2121.74L1350.42,2121.65L1350.75,2121.56L1351.08,2121.47L1351.41,2121.37L1351.74,2121.27L1352.07,2121.17L1352.4,2121.06L1352.73,2120.96L1353.06,2120.85L1353.38,2120.73L1353.71,2120.62L1354.04,2120.5L1354.36,2120.38L1354.69,2120.26L1355.01,2120.13L1355.33,2120L1355.66,2119.87L1355.98,2119.74L1356.3,2119.6L1356.62,2119.46L1356.94,2119.32L1357.26,2119.17L1357.58,2119.02L1357.9,2118.87L1358.22,2118.72L1358.54,2118.56L1358.85,2118.4L1359.17,2118.24L1359.48,2118.08L1359.8,2117.91L1360.11,2117.74L1360.42,2117.57L1360.73,2117.4L1361.04,2117.22L1361.36,2117.04L1361.66,2116.86L1361.97,2116.67L1362.28,2116.48L1362.59,2116.29L1362.89,2116.1L1363.2,2115.91L1363.5,2115.71L1363.81,2115.51L1364.11,2115.3L1364.41,2115.1L1364.71,2114.89L1365.01,2114.68L1365.31,2114.47L1365.61,2114.25L1365.91,2114.03L1366.2,2113.81L1366.5,2113.59L1366.8,2113.36L1367.09,2113.13L1367.38,2112.9L1367.67,2112.66L1367.96,2112.43L1368.26,2112.19L1368.54,2111.95L1368.83,2111.7L1369.12,2111.46L1369.4,2111.21L1369.69,2110.96L1369.97,2110.7L1370.26,2110.45L1370.54,2110.19L1370.82,2109.93L1371.1,2109.66L1371.38,2109.4L1371.65,2109.13L1371.93,2108.86L1372.2,2108.59L1372.48,2108.31L1372.75,2108.03L1373.02,2107.75L1373.29,2107.47L1373.56,2107.18L1373.83,2106.89L1374.1,2106.6L1374.36,2106.31L1374.63,2106.02L1374.89,2105.72L1375.15,2105.42L1375.41,2105.12L1375.67,2104.81L1375.93,2104.51L1376.19,2104.2L1376.45,2103.88L1376.7,2103.57L1376.95,2103.25L1377.21,2102.93L1377.46,2102.61L1377.71,2102.29L1377.95,2101.96L1378.2,2101.64L1378.45,2101.3L1378.69,2100.97L1378.94,2100.64L1379.18,2100.3L1379.42,2099.96L1379.65,2099.62L1379.89,2099.28L1380.13,2098.93L1380.36,2098.59L1380.59,2098.24L1380.82,2097.89L1381.05,2097.54L1381.28,2097.18L1381.5,2096.83L1381.72,2096.47L1381.94,2096.11L1382.16,2095.75L1382.38,2095.39L1382.6,2095.03L1382.81,2094.66L1383.03,2094.29L1383.24,2093.93L1383.45,2093.55L1383.65,2093.18L1383.86,2092.81L1384.06,2092.43L1384.27,2092.06L1384.47,2091.68L1384.67,2091.3L1384.86,2090.92L1385.06,2090.53L1385.25,2090.15L1385.44,2089.76L1385.63,2089.38L1385.82,2088.99L1386.01,2088.6L1386.19,2088.2L1386.38,2087.81L1386.56,2087.42L1386.74,2087.02L1386.91,2086.62L1387.09,2086.22L1387.27,2085.82L1387.44,2085.42L1387.61,2085.02L1387.78,2084.61L1387.94,2084.21L1388.11,2083.8L1388.27,2083.39L1388.43,2082.98L1388.59,2082.57L1388.75,2082.16L1388.9,2081.74L1389.06,2081.33L1389.21,2080.91L1389.36,2080.49L1389.51,2080.07L1389.66,2079.66L1389.8,2079.23L1389.94,2078.81L1390.08,2078.39L1390.22,2077.96L1390.36,2077.54L1390.5,2077.11L1390.63,2076.68L1390.76,2076.25L1390.89,2075.82L1391.02,2075.39L1391.14,2074.96L1391.27,2074.52L1391.39,2074.09L1391.51,2073.65L1391.63,2073.22L1391.75,2072.78L1391.86,2072.34L1391.97,2071.9L1392.08,2071.46L1392.19,2071.02L1392.3,2070.58L1392.4,2070.13L1392.51,2069.69L1392.61,2069.24L1392.7,2068.8L1392.8,2068.35L1392.9,2067.9L1392.99,2067.45L1393.08,2067L1393.17,2066.55L1393.26,2066.1L1393.34,2065.65L1393.42,2065.2L1393.51,2064.74L1393.59,2064.29L1393.66,2063.83L1393.74,2063.37L1393.81,2062.92L1393.88,2062.46L1393.95,2062L1394.02,2061.54L1394.08,2061.08L1394.15,2060.62L1394.21,2060.16L1394.27,2059.7L1394.33,2059.24L1394.38,2058.77L1394.43,2058.31L1394.48,2057.85L1394.53,2057.38L1394.58,2056.91L1394.63,2056.45L1394.67,2055.98L1394.71,2055.51L1394.75,2055.05L1394.78,2054.58L1394.82,2054.11L1394.85,2053.64L1394.88,2053.17L1394.91,2052.7L1394.94,2052.23L1394.96,2051.76L1394.98,2051.29L1395,2050.82L1395.02,2050.34L1395.04,2049.87L1395.05,2049.4L1395.06,2048.92L1395.07,2048.45L1395.08,2047.98L1395.08,2047.5L1395.09,2047.03L1395.09,2046.55L1395.09,1359.88L1395.09,1359.58L1395.08,1359.28L1395.08,1358.98L1395.07,1358.68L1395.05,1358.38L1395.04,1358.09L1395.02,1357.79L1395,1357.5L1394.98,1357.2L1394.95,1356.91L1394.92,1356.62L1394.89,1356.33L1394.86,1356.04L1394.83,1355.75L1394.79,1355.47L1394.75,1355.18L1394.7,1354.9L1394.66,1354.62L1394.61,1354.33L1394.56,1354.05L1394.51,1353.78L1394.45,1353.5L1394.39,1353.22L1394.33,1352.95L1394.27,1352.67L1394.2,1352.4L1394.14,1352.13L1394.07,1351.87L1394,1351.6L1393.92,1351.33L1393.85,1351.07L1393.77,1350.81L1393.69,1350.55L1393.6,1350.29L1393.52,1350.03L1393.43,1349.77L1393.34,1349.52L1393.25,1349.27L1393.16,1349.02L1393.06,1348.77L1392.96,1348.52L1392.86,1348.28L1392.76,1348.03L1392.65,1347.79L1392.55,1347.55L1392.44,1347.32L1392.33,1347.08L1392.22,1346.85L1392.1,1346.62L1391.99,1346.38L1391.87,1346.16L1391.75,1345.93L1391.63,1345.71L1391.5,1345.49L1391.38,1345.27L1391.25,1345.05L1391.12,1344.84L1390.99,1344.62L1390.86,1344.41L1390.72,1344.21L1390.59,1344L1390.45,1343.8L1390.31,1343.6L1390.17,1343.4L1390.02,1343.2L1389.88,1343.01L1389.73,1342.81L1389.58,1342.62L1389.43,1342.44L1389.28,1342.25L1389.13,1342.07L1388.97,1341.89L1388.82,1341.71L1388.66,1341.54L1388.5,1341.37L1388.34,1341.2L1388.17,1341.03L1388.01,1340.87L1387.85,1340.71L1387.68,1340.55L1387.51,1340.39L1387.34,1340.24L1387.17,1340.09L1387,1339.94L1386.82,1339.8L1386.65,1339.66L1386.47,1339.52L1386.29,1339.38L1386.11,1339.25L1385.93,1339.12L1385.75,1338.99L1385.57,1338.87L1385.38,1338.75L1385.2,1338.63L1385.01,1338.51L1384.82,1338.4L1384.63,1338.29L1384.44,1338.18L1384.25,1338.08L1384.06,1337.98L1383.87,1337.89L1383.67,1337.79L1383.48,1337.7L1383.28,1337.62L1383.08,1337.53L1382.88,1337.45L1382.68,1337.38L1382.48,1337.3L1382.28,1337.23L1382.08,1337.16L1381.87,1337.1L1381.67,1337.04L1381.46,1336.99L1381.26,1336.93L1381.05,1336.88L1380.84,1336.84L1380.63,1336.8L1380.42,1336.76L1380.21,1336.72L1380,1336.69L1379.79,1336.66L1379.57,1336.64L1379.36,1336.62L1379.15,1336.6L1378.93,1336.59L1378.71,1336.58L1378.5,1336.57L1378.28,1336.57L940.813,1336.57Z"/>
    </g>
    <g transform="matrix(0.81233,0,0,0.541024,-808.915,-856.078)">
        <ellipse cx="1174.48" cy="2029.16" rx="24.512" ry="22.947" style="fill:rgb(77,77,77);"/>
        <path d="M1174.83,2000.02L1175.18,2000.03L1175.52,2000.04L1175.87,2000.05L1176.22,2000.07L1176.56,2000.09L1176.9,2000.12L1177.25,2000.15L1177.59,2000.18L1177.93,2000.22L1178.27,2000.27L1178.6,2000.31L1178.94,2000.36L1179.27,2000.42L1179.61,2000.47L1179.94,2000.54L1180.27,2000.6L1180.93,2000.74L1181.26,2000.82L1181.58,2000.9L1181.91,2000.99L1182.23,2001.07L1182.55,2001.16L1183.51,2001.46L1183.82,2001.57L1184.14,2001.68L1184.45,2001.79L1185.38,2002.15L1185.68,2002.28L1185.99,2002.41L1186.29,2002.55L1186.59,2002.68L1186.89,2002.83L1187.19,2002.97L1187.48,2003.12L1187.78,2003.27L1188.07,2003.42L1188.36,2003.58L1188.65,2003.75L1188.94,2003.91L1189.5,2004.25L1190.34,2004.79L1190.61,2004.97L1190.89,2005.16L1191.16,2005.35L1191.43,2005.55L1191.69,2005.75L1191.96,2005.95L1192.22,2006.15L1192.74,2006.57L1192.99,2006.79L1193.25,2007.01L1193.75,2007.45L1193.99,2007.68L1194.24,2007.91L1194.96,2008.63L1195.19,2008.87L1195.65,2009.37L1195.88,2009.63L1196.1,2009.88L1196.33,2010.14L1196.55,2010.41L1196.76,2010.68L1196.98,2010.95L1197.19,2011.22L1197.4,2011.5L1197.6,2011.78L1197.81,2012.07L1198.01,2012.36L1198.2,2012.65L1198.4,2012.94L1198.78,2013.54L1199.32,2014.47L1199.5,2014.79L1199.84,2015.43L1200,2015.76L1200.17,2016.09L1200.33,2016.42L1200.78,2017.44L1201.2,2018.49L1201.46,2019.21L1201.58,2019.58L1201.7,2019.94L1201.82,2020.32L1201.93,2020.69L1202.04,2021.07L1202.24,2021.83L1202.32,2022.2L1202.37,2022.41L1202.41,2022.61L1202.46,2022.8L1202.58,2023.4L1202.61,2023.6L1202.65,2023.8L1202.68,2024L1202.72,2024.19L1202.75,2024.4L1202.81,2024.8L1202.84,2025.01L1202.87,2025.21L1202.89,2025.41L1202.92,2025.62L1202.94,2025.82L1202.98,2026.24L1203,2026.44L1203.02,2026.65L1203.03,2026.86L1203.05,2027.06L1203.07,2027.48L1203.09,2027.69L1203.09,2027.9L1203.11,2028.32L1203.11,2028.53L1203.12,2028.74L1203.12,2029.59L1203.11,2029.8L1203.11,2030.01L1203.1,2030.22L1203.09,2030.43L1203.09,2030.64L1203.07,2030.85L1203.06,2031.06L1203.05,2031.27L1203.03,2031.47L1203.02,2031.68L1203,2031.89L1202.98,2032.1L1202.96,2032.3L1202.94,2032.51L1202.92,2032.71L1202.89,2032.92L1202.87,2033.12L1202.84,2033.33L1202.81,2033.53L1202.78,2033.73L1202.75,2033.93L1202.72,2034.13L1202.68,2034.34L1202.65,2034.54L1202.61,2034.74L1202.58,2034.93L1202.54,2035.13L1202.5,2035.33L1202.46,2035.53L1202.41,2035.72L1202.37,2035.92L1202.32,2036.13L1202.24,2036.5L1202.14,2036.88L1202.04,2037.26L1201.93,2037.64L1201.82,2038.02L1201.7,2038.39L1201.58,2038.76L1201.46,2039.12L1201.33,2039.48L1201.2,2039.84L1201.06,2040.19L1200.92,2040.54L1200.78,2040.89L1200.63,2041.24L1200.48,2041.58L1200.33,2041.91L1200.17,2042.25L1200,2042.58L1199.84,2042.9L1199.67,2043.23L1199.5,2043.54L1199.32,2043.86L1199.14,2044.17L1198.96,2044.48L1198.78,2044.79L1198.59,2045.09L1198.4,2045.39L1198.2,2045.68L1198.01,2045.98L1197.81,2046.26L1197.6,2046.55L1197.4,2046.83L1197.19,2047.11L1196.98,2047.38L1196.76,2047.65L1196.55,2047.92L1196.33,2048.18L1196.1,2048.45L1195.88,2048.7L1195.65,2048.96L1195.42,2049.21L1195.19,2049.46L1194.96,2049.7L1194.72,2049.94L1194.48,2050.18L1194.24,2050.42L1193.99,2050.65L1193.75,2050.88L1193.5,2051.1L1193.25,2051.32L1192.99,2051.54L1192.74,2051.76L1192.48,2051.97L1192.22,2052.18L1191.96,2052.38L1191.69,2052.58L1191.43,2052.78L1191.16,2052.98L1190.89,2053.17L1190.61,2053.36L1190.34,2053.54L1190.06,2053.72L1189.78,2053.9L1189.5,2054.08L1189.22,2054.25L1188.94,2054.42L1188.65,2054.59L1188.36,2054.75L1188.07,2054.91L1187.78,2055.06L1187.48,2055.21L1187.19,2055.36L1186.89,2055.51L1186.59,2055.65L1186.29,2055.78L1185.99,2055.92L1185.68,2056.05L1185.38,2056.18L1185.07,2056.3L1184.76,2056.42L1184.45,2056.54L1184.14,2056.65L1183.82,2056.76L1183.51,2056.87L1183.19,2056.97L1182.87,2057.07L1182.55,2057.16L1182.23,2057.26L1181.91,2057.35L1181.58,2057.43L1181.26,2057.51L1180.93,2057.59L1180.6,2057.66L1180.27,2057.73L1179.94,2057.8L1179.61,2057.86L1179.27,2057.91L1178.94,2057.97L1178.6,2058.02L1178.27,2058.07L1177.93,2058.11L1177.59,2058.15L1177.25,2058.18L1176.9,2058.21L1176.56,2058.24L1176.22,2058.26L1175.87,2058.28L1175.52,2058.29L1175.18,2058.3L1174.83,2058.31L1174.48,2058.31L1174.13,2058.31L1173.78,2058.3L1173.43,2058.29L1173.09,2058.28L1172.74,2058.26L1172.4,2058.24L1172.06,2058.21L1171.71,2058.18L1171.37,2058.15L1171.03,2058.11L1170.69,2058.07L1170.36,2058.02L1170.02,2057.97L1169.68,2057.91L1169.35,2057.86L1169.02,2057.8L1168.69,2057.73L1168.36,2057.66L1168.03,2057.59L1167.7,2057.51L1167.38,2057.43L1167.05,2057.35L1166.73,2057.26L1166.41,2057.16L1166.09,2057.07L1165.77,2056.97L1165.45,2056.87L1165.13,2056.76L1164.82,2056.65L1164.51,2056.54L1164.2,2056.42L1163.89,2056.3L1163.58,2056.18L1163.28,2056.05L1162.97,2055.92L1162.67,2055.78L1162.37,2055.65L1162.07,2055.51L1161.77,2055.36L1161.47,2055.21L1161.18,2055.06L1160.89,2054.91L1160.6,2054.75L1160.31,2054.59L1160.02,2054.42L1159.74,2054.25L1159.46,2054.08L1159.17,2053.9L1158.9,2053.72L1158.62,2053.54L1158.35,2053.36L1158.07,2053.17L1157.8,2052.98L1157.53,2052.78L1157.27,2052.58L1157,2052.38L1156.74,2052.18L1156.48,2051.97L1156.22,2051.76L1155.97,2051.54L1155.71,2051.32L1155.46,2051.1L1155.21,2050.88L1154.97,2050.65L1154.72,2050.42L1154.48,2050.18L1154.24,2049.94L1154,2049.7L1153.77,2049.46L1153.54,2049.21L1153.31,2048.96L1153.08,2048.7L1152.86,2048.45L1152.63,2048.18L1152.41,2047.92L1152.2,2047.65L1151.98,2047.38L1151.77,2047.11L1151.56,2046.83L1151.36,2046.55L1151.15,2046.26L1150.95,2045.97L1150.76,2045.68L1150.56,2045.39L1150.37,2045.09L1150.18,2044.79L1150,2044.48L1149.82,2044.17L1149.64,2043.86L1149.46,2043.54L1149.29,2043.23L1149.12,2042.9L1148.95,2042.58L1148.79,2042.25L1148.63,2041.91L1148.48,2041.58L1148.33,2041.24L1148.18,2040.89L1148.04,2040.54L1147.9,2040.19L1147.76,2039.84L1147.63,2039.48L1147.5,2039.12L1147.38,2038.76L1147.26,2038.39L1147.14,2038.02L1147.03,2037.64L1146.92,2037.26L1146.82,2036.88L1146.72,2036.5L1146.63,2036.13L1146.59,2035.92L1146.54,2035.72L1146.5,2035.53L1146.46,2035.33L1146.42,2035.13L1146.38,2034.93L1146.35,2034.74L1146.31,2034.54L1146.27,2034.34L1146.24,2034.13L1146.21,2033.93L1146.18,2033.73L1146.15,2033.53L1146.12,2033.33L1146.09,2033.12L1146.07,2032.92L1146.04,2032.71L1146.02,2032.51L1146,2032.3L1145.98,2032.1L1145.96,2031.89L1145.94,2031.68L1145.92,2031.47L1145.91,2031.27L1145.9,2031.06L1145.88,2030.85L1145.87,2030.64L1145.87,2030.43L1145.86,2030.22L1145.85,2030.01L1145.85,2029.8L1145.84,2029.59L1145.84,2029.38L1145.84,2029.16L1145.84,2028.95L1145.84,2028.74L1145.85,2028.53L1145.85,2028.32L1145.86,2028.11L1145.87,2027.9L1145.87,2027.69L1145.88,2027.48L1145.9,2027.27L1145.91,2027.07L1145.92,2026.86L1145.94,2026.65L1145.96,2026.44L1145.98,2026.24L1146,2026.03L1146.02,2025.82L1146.04,2025.62L1146.07,2025.41L1146.09,2025.21L1146.12,2025L1146.15,2024.8L1146.18,2024.6L1146.21,2024.4L1146.24,2024.19L1146.27,2024L1146.31,2023.8L1146.35,2023.6L1146.38,2023.4L1146.42,2023.2L1146.46,2023L1146.5,2022.8L1146.54,2022.61L1146.59,2022.41L1146.63,2022.2L1146.72,2021.83L1146.82,2021.45L1146.92,2021.07L1147.03,2020.69L1147.14,2020.31L1147.26,2019.94L1147.38,2019.58L1147.5,2019.21L1147.63,2018.85L1147.76,2018.49L1147.9,2018.14L1148.04,2017.79L1148.18,2017.44L1148.33,2017.1L1148.48,2016.76L1148.63,2016.42L1148.79,2016.09L1148.95,2015.76L1149.12,2015.43L1149.29,2015.11L1149.46,2014.79L1149.64,2014.47L1149.82,2014.16L1150,2013.85L1150.18,2013.54L1150.37,2013.24L1150.56,2012.94L1150.76,2012.65L1150.95,2012.36L1151.15,2012.07L1151.36,2011.78L1151.56,2011.5L1151.77,2011.22L1151.98,2010.95L1152.2,2010.68L1152.41,2010.41L1152.63,2010.14L1152.86,2009.88L1153.08,2009.63L1153.31,2009.37L1153.54,2009.12L1153.77,2008.87L1154,2008.63L1154.24,2008.39L1154.48,2008.15L1154.72,2007.91L1154.97,2007.68L1155.21,2007.45L1155.46,2007.23L1155.71,2007.01L1155.97,2006.79L1156.22,2006.57L1156.48,2006.36L1156.74,2006.15L1157,2005.95L1157.27,2005.75L1157.53,2005.55L1157.8,2005.35L1158.07,2005.16L1158.35,2004.97L1158.62,2004.79L1158.9,2004.61L1159.17,2004.43L1159.46,2004.25L1159.74,2004.08L1160.02,2003.91L1160.31,2003.75L1160.6,2003.58L1160.89,2003.42L1161.18,2003.27L1161.47,2003.12L1161.77,2002.97L1162.07,2002.83L1162.37,2002.68L1162.67,2002.55L1162.97,2002.41L1163.28,2002.28L1163.58,2002.15L1163.89,2002.03L1164.2,2001.91L1164.51,2001.79L1164.82,2001.68L1165.13,2001.57L1165.45,2001.46L1165.77,2001.36L1166.09,2001.26L1166.41,2001.16L1166.73,2001.07L1167.05,2000.99L1167.38,2000.9L1167.7,2000.82L1168.03,2000.74L1168.36,2000.67L1168.69,2000.6L1169.02,2000.54L1169.35,2000.47L1169.68,2000.42L1170.02,2000.36L1170.36,2000.31L1170.69,2000.27L1171.03,2000.22L1171.37,2000.18L1171.71,2000.15L1172.06,2000.12L1172.4,2000.09L1172.74,2000.07L1173.09,2000.05L1173.43,2000.04L1173.78,2000.03L1174.13,2000.02L1174.83,2000.02ZM1174.16,2006.22L1173.85,2006.23L1173.53,2006.24L1173.22,2006.25L1172.91,2006.26L1172.6,2006.29L1172.28,2006.31L1171.98,2006.34L1171.67,2006.37L1171.36,2006.4L1171.05,2006.44L1170.75,2006.48L1170.44,2006.53L1170.14,2006.58L1169.84,2006.63L1169.54,2006.68L1169.24,2006.74L1168.95,2006.81L1168.65,2006.87L1168.36,2006.94L1168.06,2007.01L1167.77,2007.09L1167.48,2007.17L1167.19,2007.25L1166.91,2007.34L1166.62,2007.42L1166.34,2007.52L1166.06,2007.61L1165.77,2007.71L1165.5,2007.81L1165.22,2007.91L1164.94,2008.02L1164.67,2008.13L1164.4,2008.25L1164.13,2008.36L1163.86,2008.48L1163.59,2008.6L1163.32,2008.73L1163.06,2008.86L1162.8,2008.99L1162.54,2009.12L1162.28,2009.26L1162.03,2009.4L1161.77,2009.54L1161.52,2009.69L1161.27,2009.84L1161.02,2009.99L1160.78,2010.14L1160.54,2010.3L1160.29,2010.45L1160.05,2010.62L1159.82,2010.78L1159.58,2010.95L1159.35,2011.12L1159.12,2011.29L1158.89,2011.46L1158.66,2011.64L1158.44,2011.82L1158.22,2012L1158,2012.18L1157.79,2012.37L1157.57,2012.56L1157.36,2012.75L1157.15,2012.94L1156.94,2013.14L1156.74,2013.34L1156.54,2013.54L1156.34,2013.74L1156.14,2013.94L1155.95,2014.15L1155.76,2014.36L1155.57,2014.57L1155.38,2014.79L1155.2,2015L1155.02,2015.22L1154.84,2015.44L1154.66,2015.66L1154.49,2015.88L1154.32,2016.11L1154.16,2016.34L1153.99,2016.57L1153.83,2016.8L1153.67,2017.03L1153.52,2017.27L1153.37,2017.51L1153.22,2017.75L1153.07,2017.99L1152.93,2018.23L1152.79,2018.48L1152.65,2018.72L1152.52,2018.97L1152.39,2019.22L1152.26,2019.47L1152.13,2019.73L1152.01,2019.98L1151.89,2020.24L1151.78,2020.5L1151.67,2020.75L1151.56,2021.02L1151.46,2021.28L1151.35,2021.54L1151.26,2021.81L1151.16,2022.08L1151.07,2022.34L1150.98,2022.62L1150.9,2022.89L1150.82,2023.16L1150.74,2023.43L1150.67,2023.71L1150.6,2023.99L1150.53,2024.26L1150.5,2024.4L1150.47,2024.54L1150.44,2024.68L1150.41,2024.82L1150.38,2024.96L1150.35,2025.11L1150.32,2025.25L1150.3,2025.39L1150.27,2025.53L1150.25,2025.67L1150.23,2025.82L1150.2,2025.96L1150.18,2026.1L1150.16,2026.24L1150.14,2026.39L1150.13,2026.53L1150.11,2026.68L1150.09,2026.82L1150.08,2026.97L1150.07,2027.11L1150.05,2027.26L1150.04,2027.4L1150.03,2027.55L1150.02,2027.69L1150.01,2027.84L1150,2027.99L1149.99,2028.13L1149.99,2028.28L1149.98,2028.43L1149.98,2028.57L1149.97,2028.72L1149.97,2029.61L1149.98,2029.76L1149.98,2029.9L1149.99,2030.05L1149.99,2030.2L1150,2030.35L1150.01,2030.49L1150.02,2030.64L1150.03,2030.78L1150.05,2031.08L1150.07,2031.22L1150.08,2031.37L1150.09,2031.51L1150.11,2031.65L1150.13,2031.8L1150.14,2031.94L1150.16,2032.09L1150.2,2032.37L1150.23,2032.52L1150.27,2032.8L1150.3,2032.94L1150.32,2033.08L1150.35,2033.23L1150.53,2034.07L1150.6,2034.35L1150.67,2034.62L1150.74,2034.9L1150.9,2035.44L1150.98,2035.72L1151.16,2036.26L1151.26,2036.52L1151.35,2036.79L1151.46,2037.05L1151.56,2037.32L1151.78,2037.84L1151.89,2038.09L1152.13,2038.61L1152.65,2039.61L1152.79,2039.86L1153.07,2040.34L1153.67,2041.3L1153.99,2041.76L1154.16,2041.99L1154.32,2042.22L1154.49,2042.44L1154.66,2042.67L1155.38,2043.55L1156.14,2044.39L1156.94,2045.19L1157.15,2045.39L1157.57,2045.77L1157.79,2045.96L1158,2046.15L1158.66,2046.69L1158.89,2046.87L1159.12,2047.04L1159.35,2047.22L1159.58,2047.38L1159.82,2047.55L1160.05,2047.72L1160.29,2047.88L1160.54,2048.03L1161.02,2048.35L1161.27,2048.49L1161.77,2048.79L1162.03,2048.93L1162.28,2049.07L1162.54,2049.21L1163.32,2049.6L1163.59,2049.73L1164.13,2049.97L1164.4,2050.08L1164.67,2050.2L1164.94,2050.31L1165.22,2050.42L1165.5,2050.52L1165.77,2050.62L1166.06,2050.72L1166.34,2050.81L1166.62,2050.91L1166.91,2050.99L1167.19,2051.08L1168.06,2051.32L1168.36,2051.39L1168.65,2051.46L1168.95,2051.53L1169.24,2051.59L1169.54,2051.65L1170.44,2051.8L1170.75,2051.85L1171.05,2051.89L1171.36,2051.93L1171.98,2051.99L1172.28,2052.02L1172.6,2052.05L1172.91,2052.07L1173.22,2052.08L1173.53,2052.1L1173.85,2052.11L1175.11,2052.11L1175.43,2052.1L1175.74,2052.08L1176.05,2052.07L1176.36,2052.05L1176.67,2052.02L1176.98,2051.99L1177.29,2051.96L1177.6,2051.93L1177.91,2051.89L1178.21,2051.85L1178.51,2051.8L1178.82,2051.75L1179.12,2051.7L1179.42,2051.65L1179.71,2051.59L1180.01,2051.53L1180.31,2051.46L1180.6,2051.39L1180.89,2051.32L1181.19,2051.24L1181.48,2051.16L1181.77,2051.08L1182.05,2050.99L1182.34,2050.91L1182.62,2050.81L1182.9,2050.72L1183.18,2050.62L1183.46,2050.52L1183.74,2050.42L1184.02,2050.31L1184.29,2050.2L1184.56,2050.08L1184.83,2049.97L1185.1,2049.85L1185.37,2049.73L1185.63,2049.6L1185.9,2049.47L1186.16,2049.34L1186.42,2049.21L1186.68,2049.07L1186.93,2048.93L1187.19,2048.79L1187.44,2048.64L1187.69,2048.49L1187.93,2048.35L1188.18,2048.19L1188.42,2048.03L1188.66,2047.88L1188.9,2047.72L1189.14,2047.55L1189.38,2047.38L1189.61,2047.22L1189.84,2047.04L1190.07,2046.87L1190.29,2046.69L1190.52,2046.51L1190.74,2046.33L1190.96,2046.15L1191.17,2045.96L1191.39,2045.77L1191.6,2045.58L1191.81,2045.39L1192.02,2045.19L1192.22,2044.99L1192.42,2044.79L1192.62,2044.59L1192.82,2044.39L1193.01,2044.18L1193.2,2043.97L1193.39,2043.76L1193.58,2043.55L1193.76,2043.33L1193.94,2043.11L1194.12,2042.89L1194.29,2042.67L1194.47,2042.44L1194.64,2042.22L1194.8,2041.99L1194.97,2041.76L1195.13,2041.53L1195.29,2041.3L1195.44,2041.06L1195.59,2040.82L1195.74,2040.58L1195.89,2040.34L1196.03,2040.1L1196.17,2039.86L1196.31,2039.61L1196.44,2039.36L1196.57,2039.11L1196.7,2038.86L1196.83,2038.61L1196.95,2038.35L1197.06,2038.09L1197.18,2037.84L1197.29,2037.58L1197.4,2037.32L1197.5,2037.05L1197.61,2036.79L1197.7,2036.52L1197.8,2036.26L1197.89,2035.99L1197.98,2035.72L1198.06,2035.44L1198.14,2035.17L1198.22,2034.9L1198.29,2034.62L1198.36,2034.35L1198.43,2034.07L1198.46,2033.93L1198.49,2033.79L1198.52,2033.65L1198.55,2033.51L1198.58,2033.37L1198.61,2033.23L1198.63,2033.08L1198.66,2032.94L1198.68,2032.8L1198.71,2032.66L1198.73,2032.52L1198.75,2032.37L1198.77,2032.23L1198.79,2032.09L1198.81,2031.94L1198.83,2031.8L1198.85,2031.65L1198.87,2031.51L1198.88,2031.37L1198.89,2031.22L1198.91,2031.08L1198.92,2030.93L1198.93,2030.78L1198.94,2030.64L1198.95,2030.49L1198.96,2030.35L1198.97,2030.2L1198.97,2030.05L1198.98,2029.9L1198.98,2029.76L1198.99,2029.61L1198.99,2029.46L1198.99,2029.31L1198.99,2029.16L1198.99,2029.02L1198.99,2028.87L1198.99,2028.72L1198.98,2028.57L1198.98,2028.43L1198.97,2028.28L1198.97,2028.13L1198.96,2027.99L1198.95,2027.84L1198.94,2027.69L1198.93,2027.55L1198.92,2027.4L1198.91,2027.26L1198.89,2027.11L1198.88,2026.97L1198.87,2026.82L1198.85,2026.68L1198.83,2026.53L1198.81,2026.39L1198.79,2026.24L1198.77,2026.1L1198.75,2025.96L1198.73,2025.82L1198.71,2025.67L1198.68,2025.53L1198.66,2025.39L1198.63,2025.25L1198.61,2025.11L1198.58,2024.96L1198.55,2024.82L1198.52,2024.68L1198.49,2024.54L1198.46,2024.4L1198.43,2024.26L1198.36,2023.99L1198.29,2023.71L1198.22,2023.43L1198.14,2023.16L1198.06,2022.89L1197.98,2022.62L1197.89,2022.34L1197.8,2022.08L1197.7,2021.81L1197.61,2021.54L1197.5,2021.28L1197.4,2021.02L1197.29,2020.75L1197.18,2020.5L1197.06,2020.24L1196.95,2019.98L1196.83,2019.73L1196.7,2019.47L1196.57,2019.22L1196.44,2018.97L1196.31,2018.72L1196.17,2018.48L1196.03,2018.23L1195.89,2017.99L1195.74,2017.75L1195.59,2017.51L1195.44,2017.27L1195.29,2017.03L1195.13,2016.8L1194.97,2016.57L1194.8,2016.34L1194.64,2016.11L1194.47,2015.88L1194.29,2015.66L1194.12,2015.44L1193.94,2015.22L1193.76,2015L1193.58,2014.79L1193.39,2014.57L1193.2,2014.36L1193.01,2014.15L1192.82,2013.94L1192.62,2013.74L1192.42,2013.54L1192.22,2013.34L1192.02,2013.14L1191.81,2012.94L1191.6,2012.75L1191.39,2012.56L1191.17,2012.37L1190.96,2012.18L1190.74,2012L1190.52,2011.82L1190.29,2011.64L1190.07,2011.46L1189.84,2011.29L1189.61,2011.12L1189.38,2010.95L1189.14,2010.78L1188.9,2010.62L1188.66,2010.45L1188.42,2010.3L1188.18,2010.14L1187.93,2009.99L1187.69,2009.84L1187.44,2009.69L1187.19,2009.54L1186.93,2009.4L1186.68,2009.26L1186.42,2009.12L1186.16,2008.99L1185.9,2008.86L1185.63,2008.73L1185.37,2008.6L1185.1,2008.48L1184.83,2008.36L1184.56,2008.25L1184.29,2008.13L1184.02,2008.02L1183.74,2007.91L1183.46,2007.81L1183.18,2007.71L1182.9,2007.61L1182.62,2007.52L1182.34,2007.42L1182.05,2007.34L1181.77,2007.25L1181.48,2007.17L1181.19,2007.09L1180.89,2007.01L1180.6,2006.94L1180.31,2006.87L1180.01,2006.81L1179.71,2006.74L1179.42,2006.68L1179.12,2006.63L1178.82,2006.58L1178.51,2006.53L1178.21,2006.48L1177.91,2006.44L1177.6,2006.4L1177.29,2006.37L1176.98,2006.34L1176.67,2006.31L1176.36,2006.29L1176.05,2006.26L1175.74,2006.25L1175.43,2006.24L1175.11,2006.23L1174.8,2006.22L1174.48,2006.22L1174.16,2006.22Z" style="fill:rgb(76,76,76);"/>
    </g>
    <g transform="matrix(0.284966,0.129442,-0.314294,0.359656,357.75,-595.683)">
        <path d="M1059.22,1464.91C1059.22,1462.2 1057.18,1459.27 1053.72,1457C1050.25,1454.73 1045.78,1453.39 1041.64,1453.39C1031.03,1453.39 1023.76,1458.15 1023.76,1465.11L1023.76,1777.74C1023.76,1780.45 1025.8,1783.38 1029.26,1785.65C1032.72,1787.92 1037.2,1789.26 1041.34,1789.26C1051.95,1789.26 1059.22,1784.5 1059.22,1777.54L1059.22,1464.91Z" style="fill:rgb(128,128,128);"/>
    </g>
    <g transform="matrix(0.284966,0.129442,-0.191644,0.219304,139.307,-381.666)">
        <path d="M1059.22,1472.28C1059.22,1467.84 1057.18,1463.03 1053.72,1459.31C1050.25,1455.59 1045.78,1453.39 1041.64,1453.39C1031.03,1453.39 1023.76,1461.2 1023.76,1472.61L1023.76,1770.37C1023.76,1774.81 1025.8,1779.62 1029.26,1783.34C1032.72,1787.07 1037.2,1789.26 1041.34,1789.26C1051.95,1789.26 1059.22,1781.45 1059.22,1770.04L1059.22,1472.28Z" style="fill:rgb(38,217,185);"/>
    </g>
    <g transform="matrix(0.284966,0.129442,-0.191644,0.219304,178.566,-352.541)">
        <path d="M1059.22,1472.28C1059.22,1467.84 1057.18,1463.03 1053.72,1459.31C1050.25,1455.59 1045.78,1453.39 1041.64,1453.39C1031.03,1453.39 1023.76,1461.2 1023.76,1472.61L1023.76,1770.37C1023.76,1774.81 1025.8,1779.62 1029.26,1783.34C1032.72,1787.07 1037.2,1789.26 1041.34,1789.26C1051.95,1789.26 1059.22,1781.45 1059.22,1770.04L1059.22,1472.28Z" style="fill:rgb(230,169,26);"/>
    </g>
    <g transform="matrix(0.394474,0,0,0.422611,-36.3477,-701.587)">
        <g transform="matrix(1.43802,0,0,2.25183,778.792,2257.88)">
            <text x="0px" y="0px" style="font-family:'Candal';font-size:114.782px;">Phone T</text>
        </g>
        <g transform="matrix(1.43802,0,0,2.25183,1489.64,2257.88)">
            <text x="0px" y="0px" style="font-family:'Candal';font-size:114.782px;">ech</text>
        </g>
    </g>
</svg>
